<?xml version="1.0" encoding="utf-8"?>
<!-- Generator: Adobe Illustrator 22.0.0, SVG Export Plug-In . SVG Version: 6.00 Build 0)  -->
<svg version="1.1" id="Layer_1" xmlns="http://www.w3.org/2000/svg" xmlns:xlink="http://www.w3.org/1999/xlink" x="0px" y="0px"
	 viewBox="0 0 1920 1080" style="enable-background:new 0 0 1920 1080;" xml:space="preserve">
<style type="text/css">
	.st0{fill:#FEF6D1;}
	.st1{fill:none;stroke:#4A4C4C;stroke-width:2;stroke-linecap:round;stroke-miterlimit:10;}
	.st2{fill:none;stroke:#4A4C4C;stroke-width:2;stroke-linecap:round;stroke-miterlimit:10;stroke-dasharray:0.999,29.9688;}
	.st3{fill:#84F0EC;}
	.st4{fill:#AC79F3;}
	.st5{fill:none;stroke:#5FACF6;stroke-width:20;stroke-linecap:round;stroke-linejoin:round;}
	.st6{fill:none;stroke:#0CEFA9;stroke-width:10;stroke-linecap:round;stroke-linejoin:round;}
	.st7{fill:none;stroke:#FE8BDA;stroke-width:40;stroke-linecap:round;stroke-linejoin:round;}
	.st8{fill:#0CEA9D;}
</style>
<g id="Layer_1_1_">
	<rect class="st0" width="1920" height="1080"/>
</g>
<g id="Layer_2_1_">
	<g>
		<g>
			<line class="st1" x1="0" y1="30" x2="0.5" y2="30"/>
			<line class="st2" x1="30.5" y1="30" x2="1904.5" y2="30"/>
			<line class="st1" x1="1919.5" y1="30" x2="1920" y2="30"/>
		</g>
	</g>
	<g>
		<g>
			<line class="st1" x1="0" y1="60" x2="0.5" y2="60"/>
			<line class="st2" x1="30.5" y1="60" x2="1904.5" y2="60"/>
			<line class="st1" x1="1919.5" y1="60" x2="1920" y2="60"/>
		</g>
	</g>
	<g>
		<g>
			<line class="st1" x1="0" y1="90" x2="0.5" y2="90"/>
			<line class="st2" x1="30.5" y1="90" x2="1904.5" y2="90"/>
			<line class="st1" x1="1919.5" y1="90" x2="1920" y2="90"/>
		</g>
	</g>
	<g>
		<g>
			<line class="st1" x1="0" y1="120" x2="0.5" y2="120"/>
			<line class="st2" x1="30.5" y1="120" x2="1904.5" y2="120"/>
			<line class="st1" x1="1919.5" y1="120" x2="1920" y2="120"/>
		</g>
	</g>
	<g>
		<g>
			<line class="st1" x1="0" y1="150" x2="0.5" y2="150"/>
			<line class="st2" x1="30.5" y1="150" x2="1904.5" y2="150"/>
			<line class="st1" x1="1919.5" y1="150" x2="1920" y2="150"/>
		</g>
	</g>
	<g>
		<g>
			<line class="st1" x1="0" y1="180" x2="0.5" y2="180"/>
			<line class="st2" x1="30.5" y1="180" x2="1904.5" y2="180"/>
			<line class="st1" x1="1919.5" y1="180" x2="1920" y2="180"/>
		</g>
	</g>
	<g>
		<g>
			<line class="st1" x1="0" y1="210" x2="0.5" y2="210"/>
			<line class="st2" x1="30.5" y1="210" x2="1904.5" y2="210"/>
			<line class="st1" x1="1919.5" y1="210" x2="1920" y2="210"/>
		</g>
	</g>
	<g>
		<g>
			<line class="st1" x1="0" y1="240" x2="0.5" y2="240"/>
			<line class="st2" x1="30.5" y1="240" x2="1904.5" y2="240"/>
			<line class="st1" x1="1919.5" y1="240" x2="1920" y2="240"/>
		</g>
	</g>
	<g>
		<g>
			<line class="st1" x1="0" y1="270" x2="0.5" y2="270"/>
			<line class="st2" x1="30.5" y1="270" x2="1904.5" y2="270"/>
			<line class="st1" x1="1919.5" y1="270" x2="1920" y2="270"/>
		</g>
	</g>
	<g>
		<g>
			<line class="st1" x1="0" y1="300" x2="0.5" y2="300"/>
			<line class="st2" x1="30.5" y1="300" x2="1904.5" y2="300"/>
			<line class="st1" x1="1919.5" y1="300" x2="1920" y2="300"/>
		</g>
	</g>
	<g>
		<g>
			<line class="st1" x1="0" y1="330" x2="0.5" y2="330"/>
			<line class="st2" x1="30.5" y1="330" x2="1904.5" y2="330"/>
			<line class="st1" x1="1919.5" y1="330" x2="1920" y2="330"/>
		</g>
	</g>
	<g>
		<g>
			<line class="st1" x1="0" y1="360" x2="0.5" y2="360"/>
			<line class="st2" x1="30.5" y1="360" x2="1904.5" y2="360"/>
			<line class="st1" x1="1919.5" y1="360" x2="1920" y2="360"/>
		</g>
	</g>
	<g>
		<g>
			<line class="st1" x1="0" y1="390" x2="0.5" y2="390"/>
			<line class="st2" x1="30.5" y1="390" x2="1904.5" y2="390"/>
			<line class="st1" x1="1919.5" y1="390" x2="1920" y2="390"/>
		</g>
	</g>
	<g>
		<g>
			<line class="st1" x1="0" y1="420" x2="0.5" y2="420"/>
			<line class="st2" x1="30.5" y1="420" x2="1904.5" y2="420"/>
			<line class="st1" x1="1919.5" y1="420" x2="1920" y2="420"/>
		</g>
	</g>
	<g>
		<g>
			<line class="st1" x1="0" y1="450" x2="0.5" y2="450"/>
			<line class="st2" x1="30.5" y1="450" x2="1904.5" y2="450"/>
			<line class="st1" x1="1919.5" y1="450" x2="1920" y2="450"/>
		</g>
	</g>
	<g>
		<g>
			<line class="st1" x1="0" y1="480" x2="0.5" y2="480"/>
			<line class="st2" x1="30.5" y1="480" x2="1904.5" y2="480"/>
			<line class="st1" x1="1919.5" y1="480" x2="1920" y2="480"/>
		</g>
	</g>
	<g>
		<g>
			<line class="st1" x1="0" y1="510" x2="0.5" y2="510"/>
			<line class="st2" x1="30.5" y1="510" x2="1904.5" y2="510"/>
			<line class="st1" x1="1919.5" y1="510" x2="1920" y2="510"/>
		</g>
	</g>
	<g>
		<g>
			<line class="st1" x1="0" y1="540" x2="0.5" y2="540"/>
			<line class="st2" x1="30.5" y1="540" x2="1904.5" y2="540"/>
			<line class="st1" x1="1919.5" y1="540" x2="1920" y2="540"/>
		</g>
	</g>
	<g>
		<g>
			<line class="st1" x1="0" y1="570" x2="0.5" y2="570"/>
			<line class="st2" x1="30.5" y1="570" x2="1904.5" y2="570"/>
			<line class="st1" x1="1919.5" y1="570" x2="1920" y2="570"/>
		</g>
	</g>
	<g>
		<g>
			<line class="st1" x1="0" y1="600" x2="0.5" y2="600"/>
			<line class="st2" x1="30.5" y1="600" x2="1904.5" y2="600"/>
			<line class="st1" x1="1919.5" y1="600" x2="1920" y2="600"/>
		</g>
	</g>
	<g>
		<g>
			<line class="st1" x1="0" y1="630" x2="0.5" y2="630"/>
			<line class="st2" x1="30.5" y1="630" x2="1904.5" y2="630"/>
			<line class="st1" x1="1919.5" y1="630" x2="1920" y2="630"/>
		</g>
	</g>
	<g>
		<g>
			<line class="st1" x1="0" y1="660" x2="0.5" y2="660"/>
			<line class="st2" x1="30.5" y1="660" x2="1904.5" y2="660"/>
			<line class="st1" x1="1919.5" y1="660" x2="1920" y2="660"/>
		</g>
	</g>
	<g>
		<g>
			<line class="st1" x1="0" y1="690" x2="0.5" y2="690"/>
			<line class="st2" x1="30.5" y1="690" x2="1904.5" y2="690"/>
			<line class="st1" x1="1919.5" y1="690" x2="1920" y2="690"/>
		</g>
	</g>
	<g>
		<g>
			<line class="st1" x1="0" y1="720" x2="0.5" y2="720"/>
			<line class="st2" x1="30.5" y1="720" x2="1904.5" y2="720"/>
			<line class="st1" x1="1919.5" y1="720" x2="1920" y2="720"/>
		</g>
	</g>
	<g>
		<g>
			<line class="st1" x1="0" y1="750" x2="0.5" y2="750"/>
			<line class="st2" x1="30.5" y1="750" x2="1904.5" y2="750"/>
			<line class="st1" x1="1919.5" y1="750" x2="1920" y2="750"/>
		</g>
	</g>
	<g>
		<g>
			<line class="st1" x1="0" y1="780" x2="0.5" y2="780"/>
			<line class="st2" x1="30.5" y1="780" x2="1904.5" y2="780"/>
			<line class="st1" x1="1919.5" y1="780" x2="1920" y2="780"/>
		</g>
	</g>
	<g>
		<g>
			<line class="st1" x1="0" y1="810" x2="0.5" y2="810"/>
			<line class="st2" x1="30.5" y1="810" x2="1904.5" y2="810"/>
			<line class="st1" x1="1919.5" y1="810" x2="1920" y2="810"/>
		</g>
	</g>
	<g>
		<g>
			<line class="st1" x1="0" y1="840" x2="0.5" y2="840"/>
			<line class="st2" x1="30.5" y1="840" x2="1904.5" y2="840"/>
			<line class="st1" x1="1919.5" y1="840" x2="1920" y2="840"/>
		</g>
	</g>
	<g>
		<g>
			<line class="st1" x1="0" y1="870" x2="0.5" y2="870"/>
			<line class="st2" x1="30.5" y1="870" x2="1904.5" y2="870"/>
			<line class="st1" x1="1919.5" y1="870" x2="1920" y2="870"/>
		</g>
	</g>
	<g>
		<g>
			<line class="st1" x1="0" y1="900" x2="0.5" y2="900"/>
			<line class="st2" x1="30.5" y1="900" x2="1904.5" y2="900"/>
			<line class="st1" x1="1919.5" y1="900" x2="1920" y2="900"/>
		</g>
	</g>
	<g>
		<g>
			<line class="st1" x1="0" y1="930" x2="0.5" y2="930"/>
			<line class="st2" x1="30.5" y1="930" x2="1904.5" y2="930"/>
			<line class="st1" x1="1919.5" y1="930" x2="1920" y2="930"/>
		</g>
	</g>
	<g>
		<g>
			<line class="st1" x1="0" y1="960" x2="0.5" y2="960"/>
			<line class="st2" x1="30.5" y1="960" x2="1904.5" y2="960"/>
			<line class="st1" x1="1919.5" y1="960" x2="1920" y2="960"/>
		</g>
	</g>
	<g>
		<g>
			<line class="st1" x1="0" y1="990" x2="0.5" y2="990"/>
			<line class="st2" x1="30.5" y1="990" x2="1904.5" y2="990"/>
			<line class="st1" x1="1919.5" y1="990" x2="1920" y2="990"/>
		</g>
	</g>
	<g>
		<g>
			<line class="st1" x1="0" y1="1020" x2="0.5" y2="1020"/>
			<line class="st2" x1="30.5" y1="1020" x2="1904.5" y2="1020"/>
			<line class="st1" x1="1919.5" y1="1020" x2="1920" y2="1020"/>
		</g>
	</g>
	<g>
		<g>
			<line class="st1" x1="0" y1="1050" x2="0.5" y2="1050"/>
			<line class="st2" x1="30.5" y1="1050" x2="1904.5" y2="1050"/>
			<line class="st1" x1="1919.5" y1="1050" x2="1920" y2="1050"/>
		</g>
	</g>
	<g>
		<g>
			<line class="st1" x1="0" y1="1080" x2="0.5" y2="1080"/>
			<line class="st2" x1="30.5" y1="1080" x2="1904.5" y2="1080"/>
			<line class="st1" x1="1919.5" y1="1080" x2="1920" y2="1080"/>
		</g>
	</g>
</g>
<g>
	<polygon class="st3" points="1287.4,14.1 1270,5.7 1282.8,117.3 1300.3,125.6 	"/>
	<polygon class="st3" points="1252.5,-2.7 1235.1,-11.1 1247.9,100.5 1265.4,108.8 	"/>
	<polygon class="st3" points="1217.6,-19.4 1200.2,-27.9 1213,83.7 1230.5,92 	"/>
	<polygon class="st3" points="1182.7,-36.2 1165.3,-44.6 1178.1,66.9 1195.6,75.2 	"/>
	<polygon class="st3" points="1322.3,30.8 1304.9,22.5 1317.7,133.9 1335.2,142.4 	"/>
	<polygon class="st3" points="1357.2,47.6 1339.8,39.3 1352.6,150.7 1370.1,159.2 	"/>
	<polygon class="st3" points="1426.9,81.2 1409.6,72.8 1422.4,184.3 1439.8,192.8 	"/>
	<polygon class="st3" points="1461.8,98 1444.5,89.6 1457.3,201.1 1474.6,209.5 	"/>
	<polygon class="st3" points="1392,64.4 1374.7,56.1 1387.5,167.5 1404.9,176 	"/>
	<polygon class="st3" points="1043.1,-103.3 1025.7,-111.8 1038.5,-0.2 1056,8.1 	"/>
	<polygon class="st3" points="973.3,-136.9 955.9,-145.4 968.8,-33.8 986.3,-25.5 	"/>
	<polygon class="st3" points="899,-67.4 916.5,-59 903.6,-170.5 886.2,-178.9 	"/>
	<polygon class="st3" points="1147.8,-53 1130.4,-61.4 1143.2,50.1 1160.7,58.5 	"/>
	<polygon class="st3" points="1008.2,-120.1 990.8,-128.6 1003.6,-17 1021.1,-8.7 	"/>
	<polygon class="st3" points="938.4,-153.7 921,-162.1 933.9,-50.6 951.4,-42.2 	"/>
	<polygon class="st3" points="1112.9,-69.8 1095.5,-78.2 1108.3,33.3 1125.8,41.7 	"/>
	<polygon class="st3" points="1078,-86.6 1060.6,-95 1073.4,16.6 1090.9,24.9 	"/>
	<polygon class="st3" points="1496.7,114.8 1479.3,106.4 1492.1,217.9 1509.5,226.3 	"/>
	<polygon class="st3" points="2055,383.3 2037.5,374.9 2050.4,486.4 2067.8,494.8 	"/>
	<polygon class="st3" points="1845.7,282.6 1828.2,274.2 1841.1,385.7 1858.5,394.1 	"/>
	<polygon class="st3" points="1985.2,349.8 1967.7,341.3 1980.7,452.9 1998,461.2 	"/>
	<polygon class="st3" points="1950.3,333 1932.8,324.5 1945.8,436.1 1963.1,444.4 	"/>
	<polygon class="st3" points="1880.6,299.4 1863,291 1876,402.5 1893.4,410.9 	"/>
	<polygon class="st3" points="1915.5,316.2 1897.9,307.7 1910.9,419.3 1928.3,427.6 	"/>
	<polygon class="st3" points="1531.6,131.5 1514.2,123.2 1527,234.7 1544.4,243.1 	"/>
	<polygon class="st3" points="868.7,-187.3 851.3,-195.7 864.1,-84.2 881.6,-75.8 	"/>
	<polygon class="st3" points="2020.1,366.5 2002.6,358.1 2015.5,469.7 2032.9,478 	"/>
	<polygon class="st3" points="2072.4,391.7 2085.3,503.2 2102.7,511.6 2089.9,400.1 	"/>
	<polygon class="st3" points="1636.3,181.9 1618.9,173.6 1631.7,285 1649.1,293.5 	"/>
	<polygon class="st3" points="1601.4,165.1 1584,156.8 1596.8,268.2 1614.2,276.7 	"/>
	<polygon class="st3" points="1810.8,265.8 1793.3,257.4 1806.2,368.9 1823.6,377.3 	"/>
	<polygon class="st3" points="1566.5,148.3 1549.1,140 1561.9,251.4 1579.3,259.9 	"/>
	<polygon class="st3" points="1671.2,198.7 1653.8,190.3 1666.6,301.8 1684,310.3 	"/>
	<polygon class="st3" points="1775.9,249 1758.4,240.6 1771.3,352.2 1788.7,360.5 	"/>
	<polygon class="st3" points="1741,232.3 1723.6,223.8 1736.4,335.4 1753.8,343.7 	"/>
	<polygon class="st3" points="1706.1,215.5 1688.7,207 1701.5,318.6 1718.9,327 	"/>
</g>
<g>
	<g>
		<polygon class="st4" points="790.6,1180.8 778.9,1189.4 771.6,1248 783.4,1239.3 		"/>
		<polygon class="st4" points="767,1198 755.2,1206.6 748,1265.2 759.8,1256.6 		"/>
		<polygon class="st4" points="743.3,1215.2 731.6,1223.7 724.3,1282.3 736.2,1273.7 		"/>
		<polygon class="st4" points="719.8,1232.4 707.9,1241 700.8,1299.6 712.5,1291 		"/>
		<polygon class="st4" points="814.3,1163.6 802.4,1172.2 795.3,1230.7 807,1222.2 		"/>
		<polygon class="st4" points="837.8,1146.3 826.1,1155 818.9,1213.6 830.7,1204.9 		"/>
		<polygon class="st4" points="885.1,1112 873.4,1120.6 866.1,1179.2 878,1170.6 		"/>
		<polygon class="st4" points="908.8,1094.7 896.9,1103.3 889.8,1161.9 901.5,1153.3 		"/>
		<polygon class="st4" points="861.5,1129.2 849.7,1137.7 842.5,1196.3 854.3,1187.8 		"/>
		<polygon class="st4" points="625.3,1301.3 613.4,1309.8 606.3,1368.4 618,1359.9 		"/>
		<polygon class="st4" points="578,1335.6 566.2,1344.3 559,1402.8 570.7,1394.2 		"/>
		<polygon class="st4" points="511.8,1437.2 523.6,1428.6 530.8,1370 518.9,1378.7 		"/>
		<polygon class="st4" points="696.2,1249.6 684.4,1258.1 677.1,1316.7 688.9,1308.2 		"/>
		<polygon class="st4" points="601.7,1318.4 589.8,1327 582.6,1385.6 594.4,1377 		"/>
		<polygon class="st4" points="554.4,1352.8 542.6,1361.4 535.3,1420 547.2,1411.4 		"/>
		<polygon class="st4" points="672.5,1266.8 660.7,1275.4 653.5,1334 665.3,1325.4 		"/>
		<polygon class="st4" points="648.9,1284 637.1,1292.6 629.8,1351.2 641.7,1342.6 		"/>
		<polygon class="st4" points="932.4,1077.6 920.6,1086.2 913.4,1144.8 925.2,1136.2 		"/>
		<polygon class="st4" points="1310.4,802.3 1298.6,810.9 1291.4,869.5 1303.2,860.8 		"/>
		<polygon class="st4" points="1168.6,905.5 1156.9,914.1 1149.6,972.7 1161.5,964.1 		"/>
		<polygon class="st4" points="1263.1,836.7 1251.3,845.4 1244.2,903.9 1256,895.2 		"/>
		<polygon class="st4" points="1239.6,853.9 1227.7,862.5 1220.5,921.1 1232.3,912.5 		"/>
		<polygon class="st4" points="1192.3,888.3 1180.5,896.9 1173.2,955.5 1185.1,946.9 		"/>
		<polygon class="st4" points="1215.9,871.1 1204.1,879.6 1196.9,938.2 1208.7,929.7 		"/>
		<polygon class="st4" points="956,1060.3 944.2,1068.9 937,1127.5 948.8,1118.9 		"/>
		<polygon class="st4" points="507.2,1387.2 495.3,1395.8 488.1,1454.4 499.9,1445.8 		"/>
		<polygon class="st4" points="1286.8,819.5 1275,828.1 1267.7,886.7 1279.6,878.1 		"/>
		<polygon class="st4" points="1322.2,793.7 1315,852.3 1326.8,843.7 1334.1,785.1 		"/>
		<polygon class="st4" points="1026.9,1008.8 1015.1,1017.3 1007.9,1075.9 1019.7,1067.3 		"/>
		<polygon class="st4" points="1003.3,1025.9 991.4,1034.5 984.3,1093.1 996,1084.5 		"/>
		<polygon class="st4" points="1145.1,922.8 1133.2,931.3 1126,989.9 1137.8,981.3 		"/>
		<polygon class="st4" points="979.6,1043.2 967.9,1051.7 960.6,1110.3 972.5,1101.7 		"/>
		<polygon class="st4" points="1050.5,991.5 1038.7,1000.2 1031.5,1058.8 1043.3,1050.1 		"/>
		<polygon class="st4" points="1121.4,939.9 1109.6,948.5 1102.4,1007.1 1114.2,998.5 		"/>
		<polygon class="st4" points="1097.8,957.1 1086,965.8 1078.7,1024.4 1090.5,1015.7 		"/>
		<polygon class="st4" points="1074.1,974.3 1062.4,982.9 1055.1,1041.5 1067,1032.9 		"/>
	</g>
	<g>
		<polygon class="st4" points="1639.9,562.3 1628.1,571 1620.8,629.6 1632.6,620.9 		"/>
		<polygon class="st4" points="1616.2,579.6 1604.4,588.2 1597.2,646.8 1609,638.2 		"/>
		<polygon class="st4" points="1592.6,596.7 1580.8,605.4 1573.6,664 1585.4,655.3 		"/>
		<polygon class="st4" points="1569,614 1557.1,622.6 1550,681.2 1561.7,672.6 		"/>
		<polygon class="st4" points="1663.5,545.2 1651.6,553.8 1644.5,612.3 1656.2,603.8 		"/>
		<polygon class="st4" points="1687.1,528 1675.3,536.6 1668.1,595.2 1679.9,586.6 		"/>
		<polygon class="st4" points="1734.3,493.6 1722.6,502.2 1715.3,560.8 1727.2,552.2 		"/>
		<polygon class="st4" points="1758,476.3 1746.1,484.9 1739,543.5 1750.7,534.9 		"/>
		<polygon class="st4" points="1710.7,510.8 1698.9,519.4 1691.7,577.9 1703.5,569.4 		"/>
		<polygon class="st4" points="1474.5,682.9 1462.6,691.4 1455.5,750 1467.2,741.5 		"/>
		<polygon class="st4" points="1427.2,717.2 1415.4,725.9 1408.2,784.4 1420,775.7 		"/>
		<polygon class="st4" points="1361,818.8 1372.8,810.2 1379.9,751.6 1368.1,760.3 		"/>
		<polygon class="st4" points="1545.4,631.2 1533.5,639.8 1526.3,698.3 1538.1,689.8 		"/>
		<polygon class="st4" points="1450.9,700 1439,708.6 1431.8,767.2 1443.6,758.6 		"/>
		<polygon class="st4" points="1403.6,734.4 1391.8,743 1384.5,801.6 1396.4,793 		"/>
		<polygon class="st4" points="1521.7,648.4 1509.9,657 1502.7,715.6 1514.5,707 		"/>
		<polygon class="st4" points="1498.1,665.6 1486.3,674.2 1479,732.8 1490.9,724.2 		"/>
		<polygon class="st4" points="1781.6,459.2 1769.8,467.8 1762.6,526.4 1774.4,517.8 		"/>
		<polygon class="st4" points="2159.6,183.9 2147.8,192.5 2140.6,251.1 2152.4,242.4 		"/>
		<polygon class="st4" points="2017.8,287.1 2006.1,295.7 1998.8,354.3 2010.7,345.7 		"/>
		<polygon class="st4" points="2112.3,218.3 2100.6,226.9 2093.3,285.5 2105.2,276.8 		"/>
		<polygon class="st4" points="2088.8,235.5 2076.9,244.1 2069.7,302.7 2081.5,294.1 		"/>
		<polygon class="st4" points="2041.5,269.9 2029.7,278.5 2022.4,337.1 2034.2,328.5 		"/>
		<polygon class="st4" points="2065.1,252.7 2053.3,261.3 2046.1,319.8 2057.9,311.3 		"/>
		<polygon class="st4" points="1805.2,441.9 1793.4,450.5 1786.2,509.1 1798,500.5 		"/>
		<polygon class="st4" points="1356.4,768.8 1344.5,777.4 1337.3,836 1349.1,827.4 		"/>
		<polygon class="st4" points="2136,201.1 2124.2,209.7 2116.9,268.3 2128.8,259.7 		"/>
		<polygon class="st4" points="2171.4,175.3 2164.2,233.9 2176,225.3 2183.3,166.7 		"/>
		<polygon class="st4" points="1876.1,390.4 1864.3,398.9 1857.1,457.5 1868.9,448.9 		"/>
		<polygon class="st4" points="1852.5,407.5 1840.7,416.2 1833.5,474.8 1845.2,466.1 		"/>
		<polygon class="st4" points="1994.3,304.4 1982.4,312.9 1975.2,371.5 1987,363 		"/>
		<polygon class="st4" points="1828.8,424.8 1817.1,433.3 1809.8,491.9 1821.7,483.4 		"/>
		<polygon class="st4" points="1899.7,373.1 1887.9,381.8 1880.8,440.3 1892.5,431.7 		"/>
		<polygon class="st4" points="1970.6,321.5 1958.8,330.1 1951.6,388.7 1963.4,380.1 		"/>
		<polygon class="st4" points="1947,338.8 1935.2,347.4 1928,405.9 1939.7,397.4 		"/>
		<polygon class="st4" points="1923.3,355.9 1911.6,364.5 1904.3,423.1 1916.2,414.5 		"/>
	</g>
</g>
<g>
	<g>
		<g>
			<polyline class="st5" points="103.9,833.9 104.2,834.3 103.8,834.6 			"/>
			<polyline class="st5" points="72,857.1 71.6,857.4 71.3,857 			"/>
			<polyline class="st5" points="48.8,825.2 48.5,824.8 48.9,824.5 			"/>
			<polyline class="st5" points="80.7,801.9 81.1,801.6 81.4,802.1 			"/>
		</g>
	</g>
	<g>
		<g>
			<polyline class="st5" points="71.3,857 71.6,857.4 71.2,857.7 			"/>
			<polyline class="st5" points="39.3,880.2 38.9,880.5 38.6,880.1 			"/>
			<polyline class="st5" points="16.1,848.3 15.8,847.9 16.2,847.6 			"/>
			<polyline class="st5" points="48.1,825 48.5,824.8 48.8,825.2 			"/>
		</g>
	</g>
	<g>
		<g>
			<polyline class="st5" points="48.2,824.4 48.5,824.8 48.1,825 			"/>
			<polyline class="st5" points="16.2,847.6 15.8,847.9 15.5,847.5 			"/>
			<polyline class="st5" points="-7,815.6 -7.3,815.2 -6.9,814.9 			"/>
			<polyline class="st5" points="24.9,792.4 25.4,792.1 25.6,792.5 			"/>
		</g>
	</g>
	<g>
		<g>
			<polyline class="st5" points="169.2,787.7 169.5,788.1 169.1,788.4 			"/>
			<polyline class="st5" points="137.3,810.9 136.9,811.2 136.6,810.8 			"/>
			<polyline class="st5" points="114,778.9 113.8,778.5 114.2,778.2 			"/>
			<polyline class="st5" points="146,755.7 146.4,755.4 146.7,755.8 			"/>
		</g>
	</g>
	<g>
		<g>
			<polyline class="st5" points="146.1,755 146.4,755.4 146,755.7 			"/>
			<polyline class="st5" points="114.2,778.2 113.8,778.5 113.5,778.1 			"/>
			<polyline class="st5" points="90.9,746.3 90.6,745.9 91.1,745.6 			"/>
			<polyline class="st5" points="122.9,723.1 123.3,722.8 123.6,723.2 			"/>
		</g>
	</g>
	<g>
		<g>
			<polyline class="st5" points="113.5,778.1 113.8,778.5 113.4,778.8 			"/>
			<polyline class="st5" points="81.5,801.4 81.1,801.6 80.8,801.2 			"/>
			<polyline class="st5" points="58.3,769.4 58,769 58.4,768.7 			"/>
			<polyline class="st5" points="90.2,746.2 90.6,745.9 90.9,746.3 			"/>
		</g>
	</g>
	<g>
		<g>
			<polyline class="st5" points="2,759.1 2.2,759.5 1.8,759.8 			"/>
			<polyline class="st5" points="-30,782.3 -30.4,782.6 -30.7,782.2 			"/>
			<polyline class="st5" points="-53.2,750.3 -53.5,749.9 -53.1,749.6 			"/>
			<polyline class="st5" points="-21.3,727.1 -20.9,726.8 -20.6,727.2 			"/>
		</g>
	</g>
	<g>
		<g>
			<polyline class="st5" points="99.9,689.7 100.2,690.1 99.8,690.4 			"/>
			<polyline class="st5" points="67.9,713 67.5,713.2 67.2,712.8 			"/>
			<polyline class="st5" points="44.7,681 44.4,680.6 44.8,680.3 			"/>
			<polyline class="st5" points="76.7,657.8 77.1,657.5 77.4,657.9 			"/>
		</g>
	</g>
	<g>
		<g>
			<polyline class="st5" points="67.2,712.8 67.5,713.2 67.1,713.5 			"/>
			<polyline class="st5" points="35.3,736.1 34.9,736.4 34.6,735.9 			"/>
			<polyline class="st5" points="12.1,704.1 11.8,703.7 12.2,703.4 			"/>
			<polyline class="st5" points="44,680.9 44.4,680.6 44.7,681 			"/>
		</g>
	</g>
</g>
<g>
	<g>
		<g>
			<g>
				<polyline class="st6" points="1649,865.5 1648.7,865.9 1648.3,865.7 				"/>
				<polyline class="st6" points="1627.5,853.7 1627.1,853.4 1627.3,853 				"/>
				<polyline class="st6" points="1639.4,832.2 1639.6,831.8 1640.1,832 				"/>
				<polyline class="st6" points="1660.8,844.1 1661.3,844.3 1661,844.7 				"/>
			</g>
		</g>
		<g>
			<g>
				<polyline class="st6" points="1627.3,853 1627.1,853.4 1626.7,853.2 				"/>
				<polyline class="st6" points="1605.9,841.1 1605.5,840.9 1605.7,840.5 				"/>
				<polyline class="st6" points="1617.7,819.7 1618,819.3 1618.4,819.5 				"/>
				<polyline class="st6" points="1639.2,831.5 1639.6,831.8 1639.4,832.2 				"/>
			</g>
		</g>
		<g>
			<g>
				<polyline class="st6" points="1639.9,831.4 1639.6,831.8 1639.2,831.5 				"/>
				<polyline class="st6" points="1618.4,819.5 1618,819.3 1618.2,818.8 				"/>
				<polyline class="st6" points="1630.3,798.1 1630.5,797.6 1630.9,797.9 				"/>
				<polyline class="st6" points="1651.7,809.9 1652.1,810.2 1651.9,810.6 				"/>
			</g>
		</g>
		<g>
			<g>
				<polyline class="st6" points="1692.3,890.6 1692,891 1691.6,890.7 				"/>
				<polyline class="st6" points="1670.8,878.7 1670.4,878.5 1670.6,878 				"/>
				<polyline class="st6" points="1682.6,857.3 1682.9,856.8 1683.3,857.1 				"/>
				<polyline class="st6" points="1704.1,869.1 1704.5,869.4 1704.3,869.8 				"/>
			</g>
		</g>
		<g>
			<g>
				<polyline class="st6" points="1704.8,868.9 1704.5,869.4 1704.1,869.1 				"/>
				<polyline class="st6" points="1683.3,857.1 1682.9,856.8 1683.1,856.4 				"/>
				<polyline class="st6" points="1695.2,835.6 1695.4,835.2 1695.8,835.5 				"/>
				<polyline class="st6" points="1716.6,847.5 1717.1,847.7 1716.8,848.2 				"/>
			</g>
		</g>
		<g>
			<g>
				<polyline class="st6" points="1683.1,856.4 1682.9,856.8 1682.5,856.6 				"/>
				<polyline class="st6" points="1661.7,844.6 1661.3,844.3 1661.5,843.9 				"/>
				<polyline class="st6" points="1673.5,823.1 1673.8,822.7 1674.2,822.9 				"/>
				<polyline class="st6" points="1695,835 1695.4,835.2 1695.2,835.6 				"/>
			</g>
		</g>
		<g>
			<g>
				<polyline class="st6" points="1664.9,788.1 1664.7,788.5 1664.2,788.3 				"/>
				<polyline class="st6" points="1643.5,776.2 1643,776 1643.3,775.6 				"/>
				<polyline class="st6" points="1655.3,754.8 1655.6,754.4 1656,754.6 				"/>
				<polyline class="st6" points="1676.8,766.6 1677.2,766.9 1676.9,767.3 				"/>
			</g>
		</g>
		<g>
			<g>
				<polyline class="st6" points="1729.8,825.7 1729.6,826.1 1729.1,825.8 				"/>
				<polyline class="st6" points="1708.4,813.8 1707.9,813.6 1708.2,813.1 				"/>
				<polyline class="st6" points="1720.2,792.4 1720.5,791.9 1720.9,792.2 				"/>
				<polyline class="st6" points="1741.7,804.2 1742.1,804.5 1741.9,804.9 				"/>
			</g>
		</g>
		<g>
			<g>
				<polyline class="st6" points="1708.2,813.1 1707.9,813.6 1707.5,813.3 				"/>
				<polyline class="st6" points="1686.7,801.3 1686.3,801 1686.6,800.6 				"/>
				<polyline class="st6" points="1698.6,779.8 1698.8,779.4 1699.3,779.7 				"/>
				<polyline class="st6" points="1720,791.7 1720.5,791.9 1720.2,792.4 				"/>
			</g>
		</g>
	</g>
	<g>
		<g>
			<g>
				<polyline class="st6" points="1598.9,952.1 1598.6,952.5 1598.2,952.2 				"/>
				<polyline class="st6" points="1577.4,940.2 1577,940 1577.2,939.5 				"/>
				<polyline class="st6" points="1589.3,918.8 1589.5,918.3 1589.9,918.6 				"/>
				<polyline class="st6" points="1610.7,930.6 1611.2,930.9 1610.9,931.3 				"/>
			</g>
		</g>
		<g>
			<g>
				<polyline class="st6" points="1577.2,939.5 1577,940 1576.6,939.7 				"/>
				<polyline class="st6" points="1555.8,927.7 1555.4,927.4 1555.6,927 				"/>
				<polyline class="st6" points="1567.6,906.2 1567.9,905.8 1568.3,906.1 				"/>
				<polyline class="st6" points="1589.1,918.1 1589.5,918.3 1589.3,918.8 				"/>
			</g>
		</g>
		<g>
			<g>
				<polyline class="st6" points="1589.8,917.9 1589.5,918.3 1589.1,918.1 				"/>
				<polyline class="st6" points="1568.3,906.1 1567.9,905.8 1568.1,905.4 				"/>
				<polyline class="st6" points="1580.2,884.6 1580.4,884.2 1580.8,884.4 				"/>
				<polyline class="st6" points="1601.6,896.4 1602,896.7 1601.8,897.1 				"/>
			</g>
		</g>
		<g>
			<g>
				<polyline class="st6" points="1642.1,977.1 1641.9,977.5 1641.5,977.3 				"/>
				<polyline class="st6" points="1620.7,965.3 1620.3,965 1620.5,964.6 				"/>
				<polyline class="st6" points="1632.5,943.8 1632.8,943.4 1633.2,943.6 				"/>
				<polyline class="st6" points="1654,955.7 1654.4,955.9 1654.2,956.3 				"/>
			</g>
		</g>
		<g>
			<g>
				<polyline class="st6" points="1654.7,955.5 1654.4,955.9 1654,955.7 				"/>
				<polyline class="st6" points="1633.2,943.6 1632.8,943.4 1633,942.9 				"/>
				<polyline class="st6" points="1645.1,922.2 1645.3,921.7 1645.7,922 				"/>
				<polyline class="st6" points="1666.5,934 1666.9,934.3 1666.7,934.7 				"/>
			</g>
		</g>
		<g>
			<g>
				<polyline class="st6" points="1633,942.9 1632.8,943.4 1632.4,943.1 				"/>
				<polyline class="st6" points="1611.6,931.1 1611.2,930.9 1611.4,930.4 				"/>
				<polyline class="st6" points="1623.4,909.7 1623.7,909.2 1624.1,909.5 				"/>
				<polyline class="st6" points="1644.9,921.5 1645.3,921.7 1645.1,922.2 				"/>
			</g>
		</g>
		<g>
			<g>
				<polyline class="st6" points="1614.8,874.6 1614.6,875.1 1614.1,874.8 				"/>
				<polyline class="st6" points="1593.4,862.8 1592.9,862.5 1593.2,862.1 				"/>
				<polyline class="st6" points="1605.2,841.3 1605.5,840.9 1605.9,841.1 				"/>
				<polyline class="st6" points="1626.7,853.2 1627.1,853.4 1626.8,853.9 				"/>
			</g>
		</g>
		<g>
			<g>
				<polyline class="st6" points="1679.7,912.2 1679.5,912.6 1679,912.4 				"/>
				<polyline class="st6" points="1658.3,900.4 1657.8,900.1 1658.1,899.7 				"/>
				<polyline class="st6" points="1670.1,878.9 1670.4,878.5 1670.8,878.7 				"/>
				<polyline class="st6" points="1691.6,890.7 1692,891 1691.7,891.4 				"/>
			</g>
		</g>
		<g>
			<g>
				<polyline class="st6" points="1658.1,899.7 1657.8,900.1 1657.4,899.9 				"/>
				<polyline class="st6" points="1636.6,887.8 1636.2,887.6 1636.5,887.2 				"/>
				<polyline class="st6" points="1648.5,866.4 1648.7,865.9 1649.2,866.2 				"/>
				<polyline class="st6" points="1669.9,878.2 1670.4,878.5 1670.1,878.9 				"/>
			</g>
		</g>
	</g>
	<g>
		<g>
			<g>
				<polyline class="st6" points="1735.5,915.6 1735.3,916.1 1734.8,915.8 				"/>
				<polyline class="st6" points="1714.1,903.8 1713.6,903.5 1713.9,903.1 				"/>
				<polyline class="st6" points="1725.9,882.3 1726.2,881.9 1726.6,882.1 				"/>
				<polyline class="st6" points="1747.4,894.2 1747.8,894.4 1747.5,894.8 				"/>
			</g>
		</g>
		<g>
			<g>
				<polyline class="st6" points="1713.9,903.1 1713.6,903.5 1713.2,903.3 				"/>
				<polyline class="st6" points="1692.4,891.3 1692,891 1692.3,890.6 				"/>
				<polyline class="st6" points="1704.3,869.8 1704.5,869.4 1705,869.6 				"/>
				<polyline class="st6" points="1725.7,881.6 1726.2,881.9 1725.9,882.3 				"/>
			</g>
		</g>
		<g>
			<g>
				<polyline class="st6" points="1726.4,881.5 1726.2,881.9 1725.7,881.6 				"/>
				<polyline class="st6" points="1705,869.6 1704.5,869.4 1704.8,868.9 				"/>
				<polyline class="st6" points="1716.8,848.2 1717.1,847.7 1717.5,848 				"/>
				<polyline class="st6" points="1738.3,860 1738.7,860.3 1738.4,860.7 				"/>
			</g>
		</g>
		<g>
			<g>
				<polyline class="st6" points="1778.8,940.7 1778.5,941.1 1778.1,940.9 				"/>
				<polyline class="st6" points="1757.3,928.8 1756.9,928.6 1757.2,928.1 				"/>
				<polyline class="st6" points="1769.2,907.4 1769.4,906.9 1769.9,907.2 				"/>
				<polyline class="st6" points="1790.6,919.2 1791.1,919.5 1790.8,919.9 				"/>
			</g>
		</g>
		<g>
			<g>
				<polyline class="st6" points="1791.3,919 1791.1,919.5 1790.6,919.2 				"/>
				<polyline class="st6" points="1769.9,907.2 1769.4,906.9 1769.7,906.5 				"/>
				<polyline class="st6" points="1781.7,885.7 1782,885.3 1782.4,885.6 				"/>
				<polyline class="st6" points="1803.2,897.6 1803.6,897.8 1803.3,898.3 				"/>
			</g>
		</g>
		<g>
			<g>
				<polyline class="st6" points="1769.7,906.5 1769.4,906.9 1769,906.7 				"/>
				<polyline class="st6" points="1748.2,894.7 1747.8,894.4 1748,894 				"/>
				<polyline class="st6" points="1760.1,873.2 1760.3,872.8 1760.8,873 				"/>
				<polyline class="st6" points="1781.5,885.1 1782,885.3 1781.7,885.7 				"/>
			</g>
		</g>
		<g>
			<g>
				<polyline class="st6" points="1751.5,838.2 1751.2,838.6 1750.8,838.4 				"/>
				<polyline class="st6" points="1730,826.3 1729.6,826.1 1729.8,825.7 				"/>
				<polyline class="st6" points="1741.9,804.9 1742.1,804.5 1742.5,804.7 				"/>
				<polyline class="st6" points="1763.3,816.7 1763.7,817 1763.5,817.4 				"/>
			</g>
		</g>
		<g>
			<g>
				<polyline class="st6" points="1816.4,875.8 1816.1,876.2 1815.7,875.9 				"/>
				<polyline class="st6" points="1794.9,863.9 1794.5,863.7 1794.7,863.2 				"/>
				<polyline class="st6" points="1806.8,842.5 1807,842 1807.4,842.3 				"/>
				<polyline class="st6" points="1828.2,854.3 1828.6,854.6 1828.4,855 				"/>
			</g>
		</g>
		<g>
			<g>
				<polyline class="st6" points="1794.7,863.2 1794.5,863.7 1794.1,863.4 				"/>
				<polyline class="st6" points="1773.3,851.4 1772.8,851.1 1773.1,850.7 				"/>
				<polyline class="st6" points="1785.1,829.9 1785.4,829.5 1785.8,829.8 				"/>
				<polyline class="st6" points="1806.6,841.8 1807,842 1806.8,842.5 				"/>
			</g>
		</g>
	</g>
	<g>
		<g>
			<g>
				<polyline class="st6" points="1685.4,1002.2 1685.2,1002.6 1684.7,1002.3 				"/>
				<polyline class="st6" points="1664,990.3 1663.5,990.1 1663.8,989.6 				"/>
				<polyline class="st6" points="1675.8,968.9 1676.1,968.4 1676.5,968.7 				"/>
				<polyline class="st6" points="1697.3,980.7 1697.7,981 1697.4,981.4 				"/>
			</g>
		</g>
		<g>
			<g>
				<polyline class="st6" points="1663.8,989.6 1663.5,990.1 1663.1,989.8 				"/>
				<polyline class="st6" points="1642.3,977.8 1641.9,977.5 1642.1,977.1 				"/>
				<polyline class="st6" points="1654.2,956.3 1654.4,955.9 1654.9,956.2 				"/>
				<polyline class="st6" points="1675.6,968.2 1676.1,968.4 1675.8,968.9 				"/>
			</g>
		</g>
		<g>
			<g>
				<polyline class="st6" points="1676.3,968 1676.1,968.4 1675.6,968.2 				"/>
				<polyline class="st6" points="1654.9,956.2 1654.4,955.9 1654.7,955.5 				"/>
				<polyline class="st6" points="1666.7,934.7 1666.9,934.3 1667.4,934.5 				"/>
				<polyline class="st6" points="1688.2,946.5 1688.6,946.8 1688.3,947.2 				"/>
			</g>
		</g>
		<g>
			<g>
				<polyline class="st6" points="1728.7,1027.2 1728.4,1027.6 1728,1027.4 				"/>
				<polyline class="st6" points="1707.2,1015.4 1706.8,1015.1 1707.1,1014.7 				"/>
				<polyline class="st6" points="1719.1,993.9 1719.3,993.5 1719.8,993.7 				"/>
				<polyline class="st6" points="1740.5,1005.8 1741,1006 1740.7,1006.4 				"/>
			</g>
		</g>
		<g>
			<g>
				<polyline class="st6" points="1741.2,1005.6 1741,1006 1740.5,1005.8 				"/>
				<polyline class="st6" points="1719.8,993.7 1719.3,993.5 1719.6,993.1 				"/>
				<polyline class="st6" points="1731.6,972.3 1731.9,971.8 1732.3,972.1 				"/>
				<polyline class="st6" points="1753.1,984.1 1753.5,984.4 1753.2,984.8 				"/>
			</g>
		</g>
		<g>
			<g>
				<polyline class="st6" points="1719.6,993.1 1719.3,993.5 1718.9,993.2 				"/>
				<polyline class="st6" points="1698.1,981.2 1697.7,981 1697.9,980.5 				"/>
				<polyline class="st6" points="1710,959.8 1710.2,959.3 1710.7,959.6 				"/>
				<polyline class="st6" points="1731.4,971.6 1731.9,971.8 1731.6,972.3 				"/>
			</g>
		</g>
		<g>
			<g>
				<polyline class="st6" points="1701.4,924.7 1701.1,925.2 1700.7,924.9 				"/>
				<polyline class="st6" points="1679.9,912.9 1679.5,912.6 1679.7,912.2 				"/>
				<polyline class="st6" points="1691.7,891.4 1692,891 1692.4,891.3 				"/>
				<polyline class="st6" points="1713.2,903.3 1713.6,903.5 1713.4,904 				"/>
			</g>
		</g>
		<g>
			<g>
				<polyline class="st6" points="1766.3,962.3 1766,962.7 1765.6,962.5 				"/>
				<polyline class="st6" points="1744.8,950.5 1744.4,950.2 1744.6,949.8 				"/>
				<polyline class="st6" points="1756.7,929 1756.9,928.6 1757.3,928.8 				"/>
				<polyline class="st6" points="1778.1,940.9 1778.5,941.1 1778.3,941.5 				"/>
			</g>
		</g>
		<g>
			<g>
				<polyline class="st6" points="1744.6,949.8 1744.4,950.2 1743.9,950 				"/>
				<polyline class="st6" points="1723.2,937.9 1722.7,937.7 1723,937.3 				"/>
				<polyline class="st6" points="1735,916.5 1735.3,916.1 1735.7,916.3 				"/>
				<polyline class="st6" points="1756.5,928.3 1756.9,928.6 1756.7,929 				"/>
			</g>
		</g>
	</g>
</g>
<g>
	<g>
		<g>
			<polyline class="st7" points="265.8,266 265.7,266.5 265.2,266.3 			"/>
			<polyline class="st7" points="206,249.9 205.5,249.8 205.6,249.3 			"/>
			<polyline class="st7" points="222,190 222.2,189.5 222.7,189.7 			"/>
			<polyline class="st7" points="281.9,206.1 282.4,206.2 282.3,206.7 			"/>
		</g>
	</g>
	<g>
		<g>
			<polyline class="st7" points="205.6,249.3 205.5,249.8 205,249.6 			"/>
			<polyline class="st7" points="145.7,233.2 145.2,233.1 145.4,232.6 			"/>
			<polyline class="st7" points="161.8,173.3 161.9,172.8 162.4,173 			"/>
			<polyline class="st7" points="221.7,189.4 222.2,189.5 222,190 			"/>
		</g>
	</g>
	<g>
		<g>
			<polyline class="st7" points="222.3,189 222.2,189.5 221.7,189.4 			"/>
			<polyline class="st7" points="162.4,173 161.9,172.8 162.1,172.4 			"/>
			<polyline class="st7" points="178.5,113.1 178.6,112.6 179.1,112.7 			"/>
			<polyline class="st7" points="238.4,129.2 238.9,129.3 238.7,129.8 			"/>
		</g>
	</g>
	<g>
		<g>
			<polyline class="st7" points="386.3,299.4 386.2,299.9 385.7,299.7 			"/>
			<polyline class="st7" points="326.4,283.3 325.9,283.2 326.1,282.7 			"/>
			<polyline class="st7" points="342.5,223.4 342.6,222.9 343.1,223.1 			"/>
			<polyline class="st7" points="402.4,239.5 402.9,239.6 402.7,240.1 			"/>
		</g>
	</g>
	<g>
		<g>
			<polyline class="st7" points="403,239.1 402.9,239.6 402.4,239.5 			"/>
			<polyline class="st7" points="343.1,223.1 342.6,222.9 342.8,222.4 			"/>
			<polyline class="st7" points="359.2,163.2 359.3,162.7 359.8,162.8 			"/>
			<polyline class="st7" points="419.1,179.3 419.6,179.4 419.4,179.9 			"/>
		</g>
	</g>
	<g>
		<g>
			<polyline class="st7" points="342.8,222.4 342.6,222.9 342.1,222.8 			"/>
			<polyline class="st7" points="282.9,206.4 282.4,206.2 282.5,205.7 			"/>
			<polyline class="st7" points="299,146.5 299.1,146 299.6,146.1 			"/>
			<polyline class="st7" points="358.8,162.6 359.3,162.7 359.2,163.2 			"/>
		</g>
	</g>
	<g>
		<g>
			<polyline class="st7" points="255.7,68.6 255.6,69.1 255.1,68.9 			"/>
			<polyline class="st7" points="195.8,52.5 195.3,52.4 195.5,51.9 			"/>
			<polyline class="st7" points="211.9,-7.4 212,-7.9 212.5,-7.7 			"/>
			<polyline class="st7" points="271.8,8.7 272.3,8.8 272.1,9.3 			"/>
		</g>
	</g>
	<g>
		<g>
			<polyline class="st7" points="436.4,118.7 436.3,119.2 435.8,119 			"/>
			<polyline class="st7" points="376.5,102.6 376,102.5 376.2,102 			"/>
			<polyline class="st7" points="392.6,42.7 392.7,42.2 393.2,42.4 			"/>
			<polyline class="st7" points="452.5,58.8 453,58.9 452.8,59.4 			"/>
		</g>
	</g>
	<g>
		<g>
			<polyline class="st7" points="376.2,102 376,102.5 375.5,102.3 			"/>
			<polyline class="st7" points="316.3,85.9 315.8,85.8 315.9,85.3 			"/>
			<polyline class="st7" points="332.4,26 332.5,25.5 333,25.7 			"/>
			<polyline class="st7" points="392.2,42.1 392.7,42.2 392.6,42.7 			"/>
		</g>
	</g>
</g>
<g>
	<g>
		<polygon class="st8" points="1061.1,-99.4 1070.8,-111.1 1064.1,-197.6 1054.2,-185.9 		"/>
		<polygon class="st8" points="1080.8,-122.7 1090.7,-134.3 1083.8,-220.8 1074,-209.2 		"/>
		<polygon class="st8" points="1100.6,-145.9 1110.4,-157.5 1103.6,-244.1 1093.7,-232.4 		"/>
		<polygon class="st8" points="1120.3,-169.3 1130.2,-180.9 1123.3,-267.4 1113.5,-255.8 		"/>
		<polygon class="st8" points="1041.3,-76.1 1051.2,-87.7 1044.3,-174.3 1034.5,-162.7 		"/>
		<polygon class="st8" points="1021.6,-52.8 1031.3,-64.5 1024.6,-151.1 1014.7,-139.3 		"/>
		<polygon class="st8" points="982,-6.4 991.8,-17.9 985.1,-104.5 975.1,-92.9 		"/>
		<polygon class="st8" points="962.2,17 972.2,5.4 965.3,-81.1 955.5,-69.5 		"/>
		<polygon class="st8" points="1001.8,-29.6 1011.7,-41.2 1004.8,-127.7 995,-116.1 		"/>
		<polygon class="st8" points="1199.3,-262.4 1209.2,-274 1202.3,-360.5 1192.5,-349 		"/>
		<polygon class="st8" points="1238.8,-308.8 1248.7,-320.6 1241.8,-407.1 1232.1,-395.4 		"/>
		<polygon class="st8" points="1281.3,-453.7 1271.5,-441.9 1278.3,-355.4 1288.2,-367.2 		"/>
		<polygon class="st8" points="1140,-192.5 1149.9,-204.1 1143.1,-290.6 1133.2,-279 		"/>
		<polygon class="st8" points="1219,-285.6 1228.9,-297.2 1222.1,-383.8 1212.2,-372.2 		"/>
		<polygon class="st8" points="1258.5,-332.2 1268.4,-343.8 1261.6,-430.3 1251.7,-418.7 		"/>
		<polygon class="st8" points="1159.8,-215.9 1169.7,-227.5 1162.8,-314 1153,-302.4 		"/>
		<polygon class="st8" points="1179.5,-239 1189.4,-250.7 1182.6,-337.2 1172.7,-325.6 		"/>
		<polygon class="st8" points="942.5,40.2 952.3,28.6 945.6,-57.9 935.6,-46.3 		"/>
		<polygon class="st8" points="626.5,412.8 636.3,401 629.5,314.5 619.6,326.3 		"/>
		<polygon class="st8" points="745,273.1 754.8,261.5 748,174.9 738.1,186.6 		"/>
		<polygon class="st8" points="666,366.2 675.9,354.4 669,267.9 659.1,279.7 		"/>
		<polygon class="st8" points="685.7,342.9 695.6,331.3 688.8,244.7 678.9,256.3 		"/>
		<polygon class="st8" points="725.2,296.3 735.1,284.7 728.3,198.1 718.4,209.8 		"/>
		<polygon class="st8" points="705.5,319.6 715.3,308.1 708.5,221.5 698.6,233.1 		"/>
		<polygon class="st8" points="922.7,63.6 932.7,52 925.8,-34.5 916,-23 		"/>
		<polygon class="st8" points="1298,-378.8 1307.9,-390.4 1301.1,-476.9 1291.2,-465.3 		"/>
		<polygon class="st8" points="646.2,389.4 656.1,377.8 649.3,291.3 639.4,302.9 		"/>
		<polygon class="st8" points="616.6,424.4 609.8,337.9 599.9,349.5 606.7,436 		"/>
		<polygon class="st8" points="863.5,133.3 873.3,121.8 866.5,35.2 856.6,46.8 		"/>
		<polygon class="st8" points="883.2,110.2 893.2,98.5 886.3,12 876.5,23.6 		"/>
		<polygon class="st8" points="764.7,249.7 774.6,238.1 767.8,151.6 757.9,163.2 		"/>
		<polygon class="st8" points="903,86.8 912.8,75.2 906,-11.3 896.1,0.3 		"/>
		<polygon class="st8" points="843.7,156.7 853.6,145 846.8,58.4 837,70.2 		"/>
		<polygon class="st8" points="784.5,226.5 794.3,214.9 787.5,128.4 777.6,140 		"/>
		<polygon class="st8" points="804.2,203.3 814.1,191.5 807.3,105 797.5,116.8 		"/>
		<polygon class="st8" points="824,179.9 833.8,168.3 827,81.8 817.1,93.4 		"/>
	</g>
	<g>
		<polygon class="st8" points="351,737.4 360.8,725.7 354,639.1 344.2,650.9 		"/>
		<polygon class="st8" points="370.7,714 380.7,702.4 373.8,615.9 364,627.5 		"/>
		<polygon class="st8" points="390.5,690.8 400.3,679.1 393.5,592.5 383.7,604.3 		"/>
		<polygon class="st8" points="410.2,667.5 420.2,655.9 413.3,569.4 403.5,580.9 		"/>
		<polygon class="st8" points="331.2,760.6 341.1,749 334.3,662.5 324.5,674.1 		"/>
		<polygon class="st8" points="311.5,783.8 321.3,772.2 314.5,685.7 304.6,697.3 		"/>
		<polygon class="st8" points="272,830.4 281.8,818.8 275,732.3 265.1,743.9 		"/>
		<polygon class="st8" points="252.2,853.8 262.1,842.1 255.3,755.6 245.4,767.2 		"/>
		<polygon class="st8" points="291.7,807.2 301.6,795.6 294.8,709.1 284.9,720.6 		"/>
		<polygon class="st8" points="489.3,574.3 499.2,562.7 492.3,476.2 482.5,487.8 		"/>
		<polygon class="st8" points="528.8,527.9 538.7,516.1 531.8,429.6 521.9,441.4 		"/>
		<polygon class="st8" points="571.3,383.1 561.4,394.8 568.3,481.3 578.2,469.6 		"/>
		<polygon class="st8" points="430,644.3 439.9,632.7 433.1,546.1 423.2,557.7 		"/>
		<polygon class="st8" points="509,551.1 518.9,539.5 512.1,453 502.2,464.6 		"/>
		<polygon class="st8" points="548.5,504.6 558.4,492.9 551.6,406.4 541.7,418 		"/>
		<polygon class="st8" points="449.7,620.9 459.7,609.3 452.8,522.8 443,534.4 		"/>
		<polygon class="st8" points="469.5,597.7 479.4,586.1 472.6,499.6 462.7,511.2 		"/>
		<polygon class="st8" points="232.5,877 242.3,865.4 235.5,778.8 225.6,790.4 		"/>
		<polygon class="st8" points="-83.5,1249.5 -73.7,1237.8 -80.6,1151.3 -90.4,1163 		"/>
		<polygon class="st8" points="35,1109.8 44.8,1098.2 38,1011.7 28.1,1023.3 		"/>
		<polygon class="st8" points="-44,1203 -34.3,1191.2 -41.1,1104.7 -50.9,1116.5 		"/>
		<polygon class="st8" points="-24.4,1179.6 -14.4,1168 -21.2,1081.5 -31.1,1093.1 		"/>
		<polygon class="st8" points="15.1,1133 25.1,1121.4 18.3,1034.9 8.4,1046.5 		"/>
		<polygon class="st8" points="-4.5,1156.4 5.3,1144.8 -1.5,1058.3 -11.4,1069.9 		"/>
		<polygon class="st8" points="212.7,900.3 222.6,888.7 215.8,802.2 205.9,813.8 		"/>
		<polygon class="st8" points="588,458 597.9,446.4 591.1,359.8 581.2,371.4 		"/>
		<polygon class="st8" points="-63.9,1226.2 -54,1214.6 -60.7,1128 -70.6,1139.7 		"/>
		<polygon class="st8" points="-93.5,1261.1 -100.2,1174.6 -110.1,1186.2 -103.4,1272.8 		"/>
		<polygon class="st8" points="153.5,970.1 163.3,958.5 156.5,872 146.6,883.6 		"/>
		<polygon class="st8" points="173.2,946.9 183.1,935.1 176.2,848.6 166.4,860.4 		"/>
		<polygon class="st8" points="54.6,1086.5 64.6,1074.9 57.8,988.3 47.9,999.9 		"/>
		<polygon class="st8" points="193,923.5 202.8,911.9 196,825.4 186.1,837 		"/>
		<polygon class="st8" points="133.7,993.5 143.6,981.7 136.7,895.2 126.9,906.9 		"/>
		<polygon class="st8" points="74.5,1063.2 84.3,1051.7 77.5,965.1 67.6,976.7 		"/>
		<polygon class="st8" points="94.2,1039.9 104.1,1028.3 97.2,941.8 87.4,953.4 		"/>
		<polygon class="st8" points="114,1016.7 123.8,1005.1 117,918.6 107.1,930.2 		"/>
	</g>
</g>
</svg>
