<?xml version="1.0" encoding="utf-8"?>
<!-- Generator: Adobe Illustrator 22.0.0, SVG Export Plug-In . SVG Version: 6.00 Build 0)  -->
<svg version="1.1" id="Layer_1" xmlns="http://www.w3.org/2000/svg" xmlns:xlink="http://www.w3.org/1999/xlink" x="0px" y="0px"
	 viewBox="0 0 50 50" style="enable-background:new 0 0 50 50;" xml:space="preserve">
<g>
	<path d="M38,2c5.5,0,10,4.5,10,10v26c0,5.5-4.5,10-10,10H12C6.5,48,2,43.5,2,38V12C2,6.5,6.5,2,12,2H38 M38,0H12C5.4,0,0,5.4,0,12
		v26c0,6.6,5.4,12,12,12h26c6.6,0,12-5.4,12-12V12C50,5.4,44.6,0,38,0L38,0z"/>
</g>
<g>
	<path d="M25,14.5c5.8,0,10.5,4.7,10.5,10.5S30.8,35.5,25,35.5S14.5,30.8,14.5,25S19.2,14.5,25,14.5 M25,12.5
		c-6.9,0-12.5,5.6-12.5,12.5S18.1,37.5,25,37.5S37.5,31.9,37.5,25S31.9,12.5,25,12.5L25,12.5z"/>
</g>
<g>
	<circle cx="38" cy="12" r="3"/>
	<path d="M38,9.5c1.4,0,2.5,1.1,2.5,2.5s-1.1,2.5-2.5,2.5s-2.5-1.1-2.5-2.5S36.6,9.5,38,9.5 M38,8.5c-1.9,0-3.5,1.6-3.5,3.5
		s1.6,3.5,3.5,3.5s3.5-1.6,3.5-3.5S39.9,8.5,38,8.5L38,8.5z"/>
</g>
</svg>
