<?xml version="1.0" encoding="utf-8"?>
<!-- Generator: Adobe Illustrator 22.0.0, SVG Export Plug-In . SVG Version: 6.00 Build 0)  -->
<svg version="1.1" xmlns="http://www.w3.org/2000/svg" xmlns:xlink="http://www.w3.org/1999/xlink" x="0px" y="0px"
	 viewBox="0 0 1920 1080" style="enable-background:new 0 0 1920 1080;" xml:space="preserve">
<style type="text/css">
	.st0{fill:#FCF6E0;}
	.st1{fill:none;stroke:#646C6C;stroke-miterlimit:10;}
	.st2{fill:none;stroke:#646C6C;stroke-miterlimit:10;stroke-dasharray:0.999,29.9688;}
	.st3{fill:#C2F0EC;}
	.st4{fill:#CC9CF3;}
	.st5{fill:none;stroke:#BDC5F6;stroke-width:20;stroke-linecap:round;stroke-linejoin:round;}
	.st6{fill:none;stroke:#63EFA9;stroke-width:10;stroke-linecap:round;stroke-linejoin:round;}
	.st7{fill:none;stroke:#FEC6DA;stroke-width:40;stroke-linecap:round;stroke-linejoin:round;}
</style>
<g id="Layer_1">
	<rect class="st0" width="1920" height="1080"/>
</g>
<g id="Layer_2">
	<g>
		<g>
			<line class="st1" x1="0" y1="30" x2="0.5" y2="30"/>
			<line class="st2" x1="30.5" y1="30" x2="1904.5" y2="30"/>
			<line class="st1" x1="1919.5" y1="30" x2="1920" y2="30"/>
		</g>
	</g>
	<g>
		<g>
			<line class="st1" x1="0" y1="60" x2="0.5" y2="60"/>
			<line class="st2" x1="30.5" y1="60" x2="1904.5" y2="60"/>
			<line class="st1" x1="1919.5" y1="60" x2="1920" y2="60"/>
		</g>
	</g>
	<g>
		<g>
			<line class="st1" x1="0" y1="90" x2="0.5" y2="90"/>
			<line class="st2" x1="30.5" y1="90" x2="1904.5" y2="90"/>
			<line class="st1" x1="1919.5" y1="90" x2="1920" y2="90"/>
		</g>
	</g>
	<g>
		<g>
			<line class="st1" x1="0" y1="120" x2="0.5" y2="120"/>
			<line class="st2" x1="30.5" y1="120" x2="1904.5" y2="120"/>
			<line class="st1" x1="1919.5" y1="120" x2="1920" y2="120"/>
		</g>
	</g>
	<g>
		<g>
			<line class="st1" x1="0" y1="150" x2="0.5" y2="150"/>
			<line class="st2" x1="30.5" y1="150" x2="1904.5" y2="150"/>
			<line class="st1" x1="1919.5" y1="150" x2="1920" y2="150"/>
		</g>
	</g>
	<g>
		<g>
			<line class="st1" x1="0" y1="180" x2="0.5" y2="180"/>
			<line class="st2" x1="30.5" y1="180" x2="1904.5" y2="180"/>
			<line class="st1" x1="1919.5" y1="180" x2="1920" y2="180"/>
		</g>
	</g>
	<g>
		<g>
			<line class="st1" x1="0" y1="210" x2="0.5" y2="210"/>
			<line class="st2" x1="30.5" y1="210" x2="1904.5" y2="210"/>
			<line class="st1" x1="1919.5" y1="210" x2="1920" y2="210"/>
		</g>
	</g>
	<g>
		<g>
			<line class="st1" x1="0" y1="240" x2="0.5" y2="240"/>
			<line class="st2" x1="30.5" y1="240" x2="1904.5" y2="240"/>
			<line class="st1" x1="1919.5" y1="240" x2="1920" y2="240"/>
		</g>
	</g>
	<g>
		<g>
			<line class="st1" x1="0" y1="270" x2="0.5" y2="270"/>
			<line class="st2" x1="30.5" y1="270" x2="1904.5" y2="270"/>
			<line class="st1" x1="1919.5" y1="270" x2="1920" y2="270"/>
		</g>
	</g>
	<g>
		<g>
			<line class="st1" x1="0" y1="300" x2="0.5" y2="300"/>
			<line class="st2" x1="30.5" y1="300" x2="1904.5" y2="300"/>
			<line class="st1" x1="1919.5" y1="300" x2="1920" y2="300"/>
		</g>
	</g>
	<g>
		<g>
			<line class="st1" x1="0" y1="330" x2="0.5" y2="330"/>
			<line class="st2" x1="30.5" y1="330" x2="1904.5" y2="330"/>
			<line class="st1" x1="1919.5" y1="330" x2="1920" y2="330"/>
		</g>
	</g>
	<g>
		<g>
			<line class="st1" x1="0" y1="360" x2="0.5" y2="360"/>
			<line class="st2" x1="30.5" y1="360" x2="1904.5" y2="360"/>
			<line class="st1" x1="1919.5" y1="360" x2="1920" y2="360"/>
		</g>
	</g>
	<g>
		<g>
			<line class="st1" x1="0" y1="390" x2="0.5" y2="390"/>
			<line class="st2" x1="30.5" y1="390" x2="1904.5" y2="390"/>
			<line class="st1" x1="1919.5" y1="390" x2="1920" y2="390"/>
		</g>
	</g>
	<g>
		<g>
			<line class="st1" x1="0" y1="420" x2="0.5" y2="420"/>
			<line class="st2" x1="30.5" y1="420" x2="1904.5" y2="420"/>
			<line class="st1" x1="1919.5" y1="420" x2="1920" y2="420"/>
		</g>
	</g>
	<g>
		<g>
			<line class="st1" x1="0" y1="450" x2="0.5" y2="450"/>
			<line class="st2" x1="30.5" y1="450" x2="1904.5" y2="450"/>
			<line class="st1" x1="1919.5" y1="450" x2="1920" y2="450"/>
		</g>
	</g>
	<g>
		<g>
			<line class="st1" x1="0" y1="480" x2="0.5" y2="480"/>
			<line class="st2" x1="30.5" y1="480" x2="1904.5" y2="480"/>
			<line class="st1" x1="1919.5" y1="480" x2="1920" y2="480"/>
		</g>
	</g>
	<g>
		<g>
			<line class="st1" x1="0" y1="510" x2="0.5" y2="510"/>
			<line class="st2" x1="30.5" y1="510" x2="1904.5" y2="510"/>
			<line class="st1" x1="1919.5" y1="510" x2="1920" y2="510"/>
		</g>
	</g>
	<g>
		<g>
			<line class="st1" x1="0" y1="540" x2="0.5" y2="540"/>
			<line class="st2" x1="30.5" y1="540" x2="1904.5" y2="540"/>
			<line class="st1" x1="1919.5" y1="540" x2="1920" y2="540"/>
		</g>
	</g>
	<g>
		<g>
			<line class="st1" x1="0" y1="570" x2="0.5" y2="570"/>
			<line class="st2" x1="30.5" y1="570" x2="1904.5" y2="570"/>
			<line class="st1" x1="1919.5" y1="570" x2="1920" y2="570"/>
		</g>
	</g>
	<g>
		<g>
			<line class="st1" x1="0" y1="600" x2="0.5" y2="600"/>
			<line class="st2" x1="30.5" y1="600" x2="1904.5" y2="600"/>
			<line class="st1" x1="1919.5" y1="600" x2="1920" y2="600"/>
		</g>
	</g>
	<g>
		<g>
			<line class="st1" x1="0" y1="630" x2="0.5" y2="630"/>
			<line class="st2" x1="30.5" y1="630" x2="1904.5" y2="630"/>
			<line class="st1" x1="1919.5" y1="630" x2="1920" y2="630"/>
		</g>
	</g>
	<g>
		<g>
			<line class="st1" x1="0" y1="660" x2="0.5" y2="660"/>
			<line class="st2" x1="30.5" y1="660" x2="1904.5" y2="660"/>
			<line class="st1" x1="1919.5" y1="660" x2="1920" y2="660"/>
		</g>
	</g>
	<g>
		<g>
			<line class="st1" x1="0" y1="690" x2="0.5" y2="690"/>
			<line class="st2" x1="30.5" y1="690" x2="1904.5" y2="690"/>
			<line class="st1" x1="1919.5" y1="690" x2="1920" y2="690"/>
		</g>
	</g>
	<g>
		<g>
			<line class="st1" x1="0" y1="720" x2="0.5" y2="720"/>
			<line class="st2" x1="30.5" y1="720" x2="1904.5" y2="720"/>
			<line class="st1" x1="1919.5" y1="720" x2="1920" y2="720"/>
		</g>
	</g>
	<g>
		<g>
			<line class="st1" x1="0" y1="750" x2="0.5" y2="750"/>
			<line class="st2" x1="30.5" y1="750" x2="1904.5" y2="750"/>
			<line class="st1" x1="1919.5" y1="750" x2="1920" y2="750"/>
		</g>
	</g>
	<g>
		<g>
			<line class="st1" x1="0" y1="780" x2="0.5" y2="780"/>
			<line class="st2" x1="30.5" y1="780" x2="1904.5" y2="780"/>
			<line class="st1" x1="1919.5" y1="780" x2="1920" y2="780"/>
		</g>
	</g>
	<g>
		<g>
			<line class="st1" x1="0" y1="810" x2="0.5" y2="810"/>
			<line class="st2" x1="30.5" y1="810" x2="1904.5" y2="810"/>
			<line class="st1" x1="1919.5" y1="810" x2="1920" y2="810"/>
		</g>
	</g>
	<g>
		<g>
			<line class="st1" x1="0" y1="840" x2="0.5" y2="840"/>
			<line class="st2" x1="30.5" y1="840" x2="1904.5" y2="840"/>
			<line class="st1" x1="1919.5" y1="840" x2="1920" y2="840"/>
		</g>
	</g>
	<g>
		<g>
			<line class="st1" x1="0" y1="870" x2="0.5" y2="870"/>
			<line class="st2" x1="30.5" y1="870" x2="1904.5" y2="870"/>
			<line class="st1" x1="1919.5" y1="870" x2="1920" y2="870"/>
		</g>
	</g>
	<g>
		<g>
			<line class="st1" x1="0" y1="900" x2="0.5" y2="900"/>
			<line class="st2" x1="30.5" y1="900" x2="1904.5" y2="900"/>
			<line class="st1" x1="1919.5" y1="900" x2="1920" y2="900"/>
		</g>
	</g>
	<g>
		<g>
			<line class="st1" x1="0" y1="930" x2="0.5" y2="930"/>
			<line class="st2" x1="30.5" y1="930" x2="1904.5" y2="930"/>
			<line class="st1" x1="1919.5" y1="930" x2="1920" y2="930"/>
		</g>
	</g>
	<g>
		<g>
			<line class="st1" x1="0" y1="960" x2="0.5" y2="960"/>
			<line class="st2" x1="30.5" y1="960" x2="1904.5" y2="960"/>
			<line class="st1" x1="1919.5" y1="960" x2="1920" y2="960"/>
		</g>
	</g>
	<g>
		<g>
			<line class="st1" x1="0" y1="990" x2="0.5" y2="990"/>
			<line class="st2" x1="30.5" y1="990" x2="1904.5" y2="990"/>
			<line class="st1" x1="1919.5" y1="990" x2="1920" y2="990"/>
		</g>
	</g>
	<g>
		<g>
			<line class="st1" x1="0" y1="1020" x2="0.5" y2="1020"/>
			<line class="st2" x1="30.5" y1="1020" x2="1904.5" y2="1020"/>
			<line class="st1" x1="1919.5" y1="1020" x2="1920" y2="1020"/>
		</g>
	</g>
	<g>
		<g>
			<line class="st1" x1="0" y1="1050" x2="0.5" y2="1050"/>
			<line class="st2" x1="30.5" y1="1050" x2="1904.5" y2="1050"/>
			<line class="st1" x1="1919.5" y1="1050" x2="1920" y2="1050"/>
		</g>
	</g>
	<g>
		<g>
			<line class="st1" x1="0" y1="1080" x2="0.5" y2="1080"/>
			<line class="st2" x1="30.5" y1="1080" x2="1904.5" y2="1080"/>
			<line class="st1" x1="1919.5" y1="1080" x2="1920" y2="1080"/>
		</g>
	</g>
</g>
<g id="Layer_3">
	<g>
		<polygon class="st3" points="1246.8,151.2 1232.2,141.5 1233.7,250.1 1248.4,259.8 		"/>
		<polygon class="st3" points="1217.5,131.7 1202.9,122 1204.4,230.6 1219.1,240.3 		"/>
		<polygon class="st3" points="1188.2,112.3 1173.6,102.5 1175.1,211.1 1189.8,220.8 		"/>
		<polygon class="st3" points="1158.9,92.8 1144.3,83 1145.8,191.6 1160.5,201.3 		"/>
		<polygon class="st3" points="1276.1,170.7 1261.5,161 1263,269.5 1277.7,279.3 		"/>
		<polygon class="st3" points="1305.4,190.2 1290.8,180.5 1292.3,289 1307,298.8 		"/>
		<polygon class="st3" points="1364,229.2 1349.4,219.5 1350.9,328 1365.5,337.8 		"/>
		<polygon class="st3" points="1393.3,248.7 1378.7,239 1380.2,347.5 1394.8,357.3 		"/>
		<polygon class="st3" points="1334.7,209.7 1320.1,200 1321.6,308.5 1336.2,318.3 		"/>
		<polygon class="st3" points="1041.7,14.8 1027.1,5 1028.6,113.6 1043.3,123.3 		"/>
		<polygon class="st3" points="983.1,-24.2 968.5,-34 970,74.6 984.7,84.3 		"/>
		<polygon class="st3" points="911.4,35.6 926.1,45.3 924.5,-63.2 909.9,-73 		"/>
		<polygon class="st3" points="1129.6,73.3 1115,63.5 1116.5,172.1 1131.2,181.8 		"/>
		<polygon class="st3" points="1012.4,-4.7 997.8,-14.5 999.3,94.1 1014,103.8 		"/>
		<polygon class="st3" points="953.8,-43.7 939.2,-53.5 940.7,55.1 955.4,64.8 		"/>
		<polygon class="st3" points="1100.3,53.8 1085.7,44 1087.2,152.6 1101.9,162.3 		"/>
		<polygon class="st3" points="1071,34.3 1056.4,24.5 1057.9,133.1 1072.6,142.8 		"/>
		<polygon class="st3" points="1422.6,268.2 1408,258.5 1409.5,367 1424.1,376.8 		"/>
		<polygon class="st3" points="1891.4,580.2 1876.7,570.4 1878.3,679 1892.9,688.7 		"/>
		<polygon class="st3" points="1715.6,463.2 1700.9,453.4 1702.5,562 1717.1,571.7 		"/>
		<polygon class="st3" points="1832.8,541.2 1818.1,531.4 1819.7,640 1834.3,649.7 		"/>
		<polygon class="st3" points="1803.5,521.7 1788.8,511.9 1790.4,620.5 1805,630.2 		"/>
		<polygon class="st3" points="1744.9,482.7 1730.2,472.9 1731.8,581.5 1746.4,591.2 		"/>
		<polygon class="st3" points="1774.2,502.2 1759.5,492.4 1761.1,601 1775.7,610.7 		"/>
		<polygon class="st3" points="1451.9,287.7 1437.3,278 1438.8,386.5 1453.4,396.3 		"/>
		<polygon class="st3" points="895.2,-82.7 880.6,-92.5 882.1,16.1 896.8,25.8 		"/>
		<polygon class="st3" points="1862.1,560.7 1847.4,550.9 1849,659.5 1863.6,669.2 		"/>
		<polygon class="st3" points="1906,589.9 1907.6,698.5 1922.2,708.2 1920.7,599.7 		"/>
		<polygon class="st3" points="1539.8,346.2 1525.2,336.5 1526.7,445 1541.3,454.8 		"/>
		<polygon class="st3" points="1510.5,326.7 1495.9,317 1497.4,425.5 1512,435.3 		"/>
		<polygon class="st3" points="1686.3,443.7 1671.6,433.9 1673.2,542.5 1687.8,552.2 		"/>
		<polygon class="st3" points="1481.2,307.2 1466.6,297.5 1468.1,406 1482.7,415.8 		"/>
		<polygon class="st3" points="1569.1,365.7 1554.5,356 1556,464.5 1570.6,474.3 		"/>
		<polygon class="st3" points="1657,424.2 1642.3,414.4 1643.9,523 1658.5,532.7 		"/>
		<polygon class="st3" points="1627.7,404.7 1613.1,394.9 1614.6,503.5 1629.2,513.2 		"/>
		<polygon class="st3" points="1598.4,385.2 1583.8,375.4 1585.3,484 1599.9,493.8 		"/>
	</g>
	<g>
		<g>
			<polygon class="st4" points="522.8,951.7 510.7,956.6 490.1,1009.1 502.3,1004.2 			"/>
			<polygon class="st4" points="498.5,961.4 486.3,966.2 465.8,1018.7 477.9,1013.9 			"/>
			<polygon class="st4" points="474.1,971 462,975.8 441.4,1028.3 453.6,1023.5 			"/>
			<polygon class="st4" points="449.8,980.7 437.6,985.5 417.1,1038 429.2,1033.2 			"/>
			<polygon class="st4" points="547.2,942.1 535,946.9 514.5,999.4 526.6,994.6 			"/>
			<polygon class="st4" points="571.5,932.4 559.4,937.3 538.8,989.8 551,984.9 			"/>
			<polygon class="st4" points="620.2,913.2 608.1,918 587.5,970.5 599.7,965.7 			"/>
			<polygon class="st4" points="644.6,903.5 632.4,908.3 611.9,960.8 624,956 			"/>
			<polygon class="st4" points="595.9,922.8 583.7,927.6 563.2,980.1 575.3,975.3 			"/>
			<polygon class="st4" points="352.4,1019.3 340.2,1024.1 319.7,1076.6 331.8,1071.8 			"/>
			<polygon class="st4" points="303.7,1038.5 291.5,1043.4 271,1095.9 283.1,1091 			"/>
			<polygon class="st4" points="222.3,1115.2 234.5,1110.3 255,1057.8 242.8,1062.7 			"/>
			<polygon class="st4" points="425.5,990.3 413.3,995.1 392.7,1047.6 404.9,1042.8 			"/>
			<polygon class="st4" points="328.1,1028.9 315.9,1033.7 295.3,1086.2 307.5,1081.4 			"/>
			<polygon class="st4" points="279.4,1048.2 267.2,1053 246.6,1105.5 258.8,1100.7 			"/>
			<polygon class="st4" points="401.1,1000 388.9,1004.8 368.4,1057.3 380.5,1052.5 			"/>
			<polygon class="st4" points="376.8,1009.6 364.6,1014.4 344,1066.9 356.2,1062.1 			"/>
			<polygon class="st4" points="668.9,893.9 656.8,898.7 636.2,951.2 648.4,946.4 			"/>
			<polygon class="st4" points="1058.5,739.5 1046.3,744.4 1025.8,796.9 1038,792 			"/>
			<polygon class="st4" points="912.4,797.4 900.3,802.2 879.7,854.7 891.9,849.9 			"/>
			<polygon class="st4" points="1009.8,758.8 997.6,763.7 977.1,816.2 989.3,811.3 			"/>
			<polygon class="st4" points="985.5,768.5 973.3,773.3 952.7,825.8 964.9,821 			"/>
			<polygon class="st4" points="936.8,787.8 924.6,792.6 904,845.1 916.2,840.3 			"/>
			<polygon class="st4" points="961.1,778.1 949,782.9 928.4,835.4 940.6,830.6 			"/>
			<polygon class="st4" points="693.3,884.2 681.1,889 660.6,941.5 672.7,936.7 			"/>
			<polygon class="st4" points="230.7,1067.5 218.5,1072.3 197.9,1124.8 210.1,1120 			"/>
			<polygon class="st4" points="1034.2,749.2 1022,754 1001.4,806.5 1013.6,801.7 			"/>
			<polygon class="st4" points="1070.7,734.7 1050.1,787.2 1062.3,782.4 1082.9,729.9 			"/>
			<polygon class="st4" points="766.3,855.3 754.2,860.1 733.6,912.6 745.8,907.8 			"/>
			<polygon class="st4" points="742,864.9 729.8,869.7 709.3,922.2 721.4,917.4 			"/>
			<polygon class="st4" points="888.1,807.1 875.9,811.9 855.3,864.4 867.5,859.6 			"/>
			<polygon class="st4" points="717.6,874.6 705.5,879.4 684.9,931.9 697.1,927.1 			"/>
			<polygon class="st4" points="790.7,845.6 778.5,850.5 757.9,903 770.1,898.1 			"/>
			<polygon class="st4" points="863.7,816.7 851.6,821.5 831,874 843.2,869.2 			"/>
			<polygon class="st4" points="839.4,826.3 827.2,831.2 806.6,883.7 818.8,878.8 			"/>
			<polygon class="st4" points="815,836 802.9,840.8 782.3,893.3 794.5,888.5 			"/>
		</g>
		<g>
			<polygon class="st4" points="1398.1,605 1385.9,609.9 1365.3,662.4 1377.5,657.5 			"/>
			<polygon class="st4" points="1373.7,614.7 1361.5,619.5 1341,672 1353.1,667.2 			"/>
			<polygon class="st4" points="1349.4,624.3 1337.2,629.2 1316.6,681.7 1328.8,676.8 			"/>
			<polygon class="st4" points="1325,634 1312.8,638.8 1292.3,691.3 1304.4,686.5 			"/>
			<polygon class="st4" points="1422.4,595.4 1410.2,600.2 1389.7,652.7 1401.8,647.9 			"/>
			<polygon class="st4" points="1446.7,585.8 1434.6,590.6 1414,643.1 1426.2,638.3 			"/>
			<polygon class="st4" points="1495.4,566.5 1483.3,571.3 1462.7,623.8 1474.9,619 			"/>
			<polygon class="st4" points="1519.8,556.8 1507.6,561.6 1487.1,614.1 1499.2,609.3 			"/>
			<polygon class="st4" points="1471.1,576.1 1458.9,580.9 1438.4,633.4 1450.5,628.6 			"/>
			<polygon class="st4" points="1227.6,672.6 1215.4,677.4 1194.9,729.9 1207,725.1 			"/>
			<polygon class="st4" points="1178.9,691.8 1166.7,696.7 1146.2,749.2 1158.4,744.3 			"/>
			<polygon class="st4" points="1097.5,768.5 1109.7,763.6 1130.2,711.1 1118,716 			"/>
			<polygon class="st4" points="1300.7,643.6 1288.5,648.4 1267.9,700.9 1280.1,696.1 			"/>
			<polygon class="st4" points="1203.3,682.2 1191.1,687 1170.5,739.5 1182.7,734.7 			"/>
			<polygon class="st4" points="1154.6,701.5 1142.4,706.3 1121.8,758.8 1134,754 			"/>
			<polygon class="st4" points="1276.3,653.3 1264.1,658.1 1243.6,710.6 1255.7,705.8 			"/>
			<polygon class="st4" points="1252,662.9 1239.8,667.7 1219.2,720.2 1231.4,715.4 			"/>
			<polygon class="st4" points="1544.1,547.2 1532,552 1511.4,604.5 1523.6,599.7 			"/>
			<polygon class="st4" points="1933.7,392.8 1921.5,397.7 1901,450.2 1913.2,445.3 			"/>
			<polygon class="st4" points="1787.6,450.7 1775.5,455.5 1754.9,508 1767.1,503.2 			"/>
			<polygon class="st4" points="1885,412.1 1872.9,417 1852.3,469.5 1864.5,464.6 			"/>
			<polygon class="st4" points="1860.7,421.8 1848.5,426.6 1827.9,479.1 1840.1,474.3 			"/>
			<polygon class="st4" points="1812,441.1 1799.8,445.9 1779.2,498.4 1791.4,493.6 			"/>
			<polygon class="st4" points="1836.3,431.4 1824.2,436.2 1803.6,488.7 1815.8,483.9 			"/>
			<polygon class="st4" points="1568.5,537.5 1556.3,542.3 1535.8,594.8 1547.9,590 			"/>
			<polygon class="st4" points="1105.9,720.8 1093.7,725.6 1073.1,778.1 1085.3,773.3 			"/>
			<polygon class="st4" points="1909.4,402.5 1897.2,407.3 1876.6,459.8 1888.8,455 			"/>
			<polygon class="st4" points="1945.9,388 1925.3,440.5 1937.5,435.7 1958.1,383.2 			"/>
			<polygon class="st4" points="1641.5,508.6 1629.4,513.4 1608.8,565.9 1621,561.1 			"/>
			<polygon class="st4" points="1617.2,518.2 1605,523.1 1584.5,575.6 1596.6,570.7 			"/>
			<polygon class="st4" points="1763.3,460.4 1751.1,465.2 1730.5,517.7 1742.7,512.9 			"/>
			<polygon class="st4" points="1592.8,527.9 1580.7,532.7 1560.1,585.2 1572.3,580.4 			"/>
			<polygon class="st4" points="1665.9,498.9 1653.7,503.8 1633.2,556.3 1645.3,551.4 			"/>
			<polygon class="st4" points="1738.9,470 1726.8,474.8 1706.2,527.3 1718.4,522.5 			"/>
			<polygon class="st4" points="1714.6,479.7 1702.4,484.5 1681.9,537 1694,532.2 			"/>
			<polygon class="st4" points="1690.2,489.3 1678.1,494.1 1657.5,546.6 1669.7,541.8 			"/>
		</g>
	</g>
</g>
<g id="Layer_4">
	<g>
		<g>
			<g>
				<polyline class="st5" points="103.9,833.9 104.2,834.3 103.8,834.6 				"/>
				<polyline class="st5" points="72,857.1 71.6,857.4 71.3,857 				"/>
				<polyline class="st5" points="48.8,825.2 48.5,824.8 48.9,824.5 				"/>
				<polyline class="st5" points="80.7,801.9 81.1,801.6 81.4,802.1 				"/>
			</g>
		</g>
		<g>
			<g>
				<polyline class="st5" points="71.3,857 71.6,857.4 71.2,857.7 				"/>
				<polyline class="st5" points="39.3,880.2 38.9,880.5 38.6,880.1 				"/>
				<polyline class="st5" points="16.1,848.3 15.8,847.9 16.2,847.6 				"/>
				<polyline class="st5" points="48.1,825 48.5,824.8 48.8,825.2 				"/>
			</g>
		</g>
		<g>
			<g>
				<polyline class="st5" points="48.2,824.4 48.5,824.8 48.1,825 				"/>
				<polyline class="st5" points="16.2,847.6 15.8,847.9 15.5,847.5 				"/>
				<polyline class="st5" points="-7,815.6 -7.3,815.2 -6.9,814.9 				"/>
				<polyline class="st5" points="24.9,792.4 25.4,792.1 25.6,792.5 				"/>
			</g>
		</g>
		<g>
			<g>
				<polyline class="st5" points="169.2,787.7 169.5,788.1 169.1,788.4 				"/>
				<polyline class="st5" points="137.3,810.9 136.9,811.2 136.6,810.8 				"/>
				<polyline class="st5" points="114,778.9 113.8,778.5 114.2,778.2 				"/>
				<polyline class="st5" points="146,755.7 146.4,755.4 146.7,755.8 				"/>
			</g>
		</g>
		<g>
			<g>
				<polyline class="st5" points="146.1,755 146.4,755.4 146,755.7 				"/>
				<polyline class="st5" points="114.2,778.2 113.8,778.5 113.5,778.1 				"/>
				<polyline class="st5" points="90.9,746.3 90.6,745.9 91.1,745.6 				"/>
				<polyline class="st5" points="122.9,723.1 123.3,722.8 123.6,723.2 				"/>
			</g>
		</g>
		<g>
			<g>
				<polyline class="st5" points="113.5,778.1 113.8,778.5 113.4,778.8 				"/>
				<polyline class="st5" points="81.5,801.4 81.1,801.6 80.8,801.2 				"/>
				<polyline class="st5" points="58.3,769.4 58,769 58.4,768.7 				"/>
				<polyline class="st5" points="90.2,746.2 90.6,745.9 90.9,746.3 				"/>
			</g>
		</g>
		<g>
			<g>
				<polyline class="st5" points="2,759.1 2.2,759.5 1.8,759.8 				"/>
				<polyline class="st5" points="-30,782.3 -30.4,782.6 -30.7,782.2 				"/>
				<polyline class="st5" points="-53.2,750.3 -53.5,749.9 -53.1,749.6 				"/>
				<polyline class="st5" points="-21.3,727.1 -20.9,726.8 -20.6,727.2 				"/>
			</g>
		</g>
		<g>
			<g>
				<polyline class="st5" points="99.9,689.7 100.2,690.1 99.8,690.4 				"/>
				<polyline class="st5" points="67.9,713 67.5,713.2 67.2,712.8 				"/>
				<polyline class="st5" points="44.7,681 44.4,680.6 44.8,680.3 				"/>
				<polyline class="st5" points="76.7,657.8 77.1,657.5 77.4,657.9 				"/>
			</g>
		</g>
		<g>
			<g>
				<polyline class="st5" points="67.2,712.8 67.5,713.2 67.1,713.5 				"/>
				<polyline class="st5" points="35.3,736.1 34.9,736.4 34.6,735.9 				"/>
				<polyline class="st5" points="12.1,704.1 11.8,703.7 12.2,703.4 				"/>
				<polyline class="st5" points="44,680.9 44.4,680.6 44.7,681 				"/>
			</g>
		</g>
	</g>
	<g>
		<g>
			<g>
				<g>
					<polyline class="st6" points="1606,849.5 1605.7,849.9 1605.3,849.7 					"/>
					<polyline class="st6" points="1584.5,837.7 1584.1,837.4 1584.3,837 					"/>
					<polyline class="st6" points="1596.4,816.2 1596.6,815.8 1597.1,816 					"/>
					<polyline class="st6" points="1617.8,828.1 1618.3,828.3 1618,828.7 					"/>
				</g>
			</g>
			<g>
				<g>
					<polyline class="st6" points="1584.3,837 1584.1,837.4 1583.7,837.2 					"/>
					<polyline class="st6" points="1562.9,825.1 1562.5,824.9 1562.7,824.5 					"/>
					<polyline class="st6" points="1574.7,803.7 1575,803.3 1575.4,803.5 					"/>
					<polyline class="st6" points="1596.2,815.5 1596.6,815.8 1596.4,816.2 					"/>
				</g>
			</g>
			<g>
				<g>
					<polyline class="st6" points="1596.9,815.4 1596.6,815.8 1596.2,815.5 					"/>
					<polyline class="st6" points="1575.4,803.5 1575,803.3 1575.2,802.8 					"/>
					<polyline class="st6" points="1587.3,782.1 1587.5,781.6 1587.9,781.9 					"/>
					<polyline class="st6" points="1608.7,793.9 1609.1,794.2 1608.9,794.6 					"/>
				</g>
			</g>
			<g>
				<g>
					<polyline class="st6" points="1649.3,874.6 1649,875 1648.6,874.7 					"/>
					<polyline class="st6" points="1627.8,862.7 1627.4,862.5 1627.6,862 					"/>
					<polyline class="st6" points="1639.6,841.3 1639.9,840.8 1640.3,841.1 					"/>
					<polyline class="st6" points="1661.1,853.1 1661.5,853.4 1661.3,853.8 					"/>
				</g>
			</g>
			<g>
				<g>
					<polyline class="st6" points="1661.8,852.9 1661.5,853.4 1661.1,853.1 					"/>
					<polyline class="st6" points="1640.3,841.1 1639.9,840.8 1640.1,840.4 					"/>
					<polyline class="st6" points="1652.2,819.6 1652.4,819.2 1652.8,819.5 					"/>
					<polyline class="st6" points="1673.6,831.5 1674.1,831.7 1673.8,832.2 					"/>
				</g>
			</g>
			<g>
				<g>
					<polyline class="st6" points="1640.1,840.4 1639.9,840.8 1639.5,840.6 					"/>
					<polyline class="st6" points="1618.7,828.6 1618.3,828.3 1618.5,827.9 					"/>
					<polyline class="st6" points="1630.5,807.1 1630.8,806.7 1631.2,806.9 					"/>
					<polyline class="st6" points="1652,819 1652.4,819.2 1652.2,819.6 					"/>
				</g>
			</g>
			<g>
				<g>
					<polyline class="st6" points="1621.9,772.1 1621.7,772.5 1621.2,772.3 					"/>
					<polyline class="st6" points="1600.5,760.2 1600,760 1600.3,759.6 					"/>
					<polyline class="st6" points="1612.3,738.8 1612.6,738.4 1613,738.6 					"/>
					<polyline class="st6" points="1633.8,750.6 1634.2,750.9 1633.9,751.3 					"/>
				</g>
			</g>
			<g>
				<g>
					<polyline class="st6" points="1686.8,809.7 1686.6,810.1 1686.1,809.8 					"/>
					<polyline class="st6" points="1665.4,797.8 1664.9,797.6 1665.2,797.1 					"/>
					<polyline class="st6" points="1677.2,776.4 1677.5,775.9 1677.9,776.2 					"/>
					<polyline class="st6" points="1698.7,788.2 1699.1,788.5 1698.9,788.9 					"/>
				</g>
			</g>
			<g>
				<g>
					<polyline class="st6" points="1665.2,797.1 1664.9,797.6 1664.5,797.3 					"/>
					<polyline class="st6" points="1643.7,785.3 1643.3,785 1643.6,784.6 					"/>
					<polyline class="st6" points="1655.6,763.8 1655.8,763.4 1656.3,763.7 					"/>
					<polyline class="st6" points="1677,775.7 1677.5,775.9 1677.2,776.4 					"/>
				</g>
			</g>
		</g>
		<g>
			<g>
				<g>
					<polyline class="st6" points="1555.9,936.1 1555.6,936.5 1555.2,936.2 					"/>
					<polyline class="st6" points="1534.4,924.2 1534,924 1534.2,923.5 					"/>
					<polyline class="st6" points="1546.3,902.8 1546.5,902.3 1546.9,902.6 					"/>
					<polyline class="st6" points="1567.7,914.6 1568.2,914.9 1567.9,915.3 					"/>
				</g>
			</g>
			<g>
				<g>
					<polyline class="st6" points="1534.2,923.5 1534,924 1533.6,923.7 					"/>
					<polyline class="st6" points="1512.8,911.7 1512.4,911.4 1512.6,911 					"/>
					<polyline class="st6" points="1524.6,890.2 1524.9,889.8 1525.3,890.1 					"/>
					<polyline class="st6" points="1546.1,902.1 1546.5,902.3 1546.3,902.8 					"/>
				</g>
			</g>
			<g>
				<g>
					<polyline class="st6" points="1546.8,901.9 1546.5,902.3 1546.1,902.1 					"/>
					<polyline class="st6" points="1525.3,890.1 1524.9,889.8 1525.1,889.4 					"/>
					<polyline class="st6" points="1537.2,868.6 1537.4,868.2 1537.8,868.4 					"/>
					<polyline class="st6" points="1558.6,880.4 1559,880.7 1558.8,881.1 					"/>
				</g>
			</g>
			<g>
				<g>
					<polyline class="st6" points="1599.1,961.1 1598.9,961.5 1598.5,961.3 					"/>
					<polyline class="st6" points="1577.7,949.3 1577.3,949 1577.5,948.6 					"/>
					<polyline class="st6" points="1589.5,927.8 1589.8,927.4 1590.2,927.6 					"/>
					<polyline class="st6" points="1611,939.7 1611.4,939.9 1611.2,940.3 					"/>
				</g>
			</g>
			<g>
				<g>
					<polyline class="st6" points="1611.7,939.5 1611.4,939.9 1611,939.7 					"/>
					<polyline class="st6" points="1590.2,927.6 1589.8,927.4 1590,926.9 					"/>
					<polyline class="st6" points="1602.1,906.2 1602.3,905.7 1602.7,906 					"/>
					<polyline class="st6" points="1623.5,918 1623.9,918.3 1623.7,918.7 					"/>
				</g>
			</g>
			<g>
				<g>
					<polyline class="st6" points="1590,926.9 1589.8,927.4 1589.4,927.1 					"/>
					<polyline class="st6" points="1568.6,915.1 1568.2,914.9 1568.4,914.4 					"/>
					<polyline class="st6" points="1580.4,893.7 1580.7,893.2 1581.1,893.5 					"/>
					<polyline class="st6" points="1601.9,905.5 1602.3,905.7 1602.1,906.2 					"/>
				</g>
			</g>
			<g>
				<g>
					<polyline class="st6" points="1571.8,858.6 1571.6,859.1 1571.1,858.8 					"/>
					<polyline class="st6" points="1550.4,846.8 1549.9,846.5 1550.2,846.1 					"/>
					<polyline class="st6" points="1562.2,825.3 1562.5,824.9 1562.9,825.1 					"/>
					<polyline class="st6" points="1583.7,837.2 1584.1,837.4 1583.8,837.9 					"/>
				</g>
			</g>
			<g>
				<g>
					<polyline class="st6" points="1636.7,896.2 1636.5,896.6 1636,896.4 					"/>
					<polyline class="st6" points="1615.3,884.4 1614.8,884.1 1615.1,883.7 					"/>
					<polyline class="st6" points="1627.1,862.9 1627.4,862.5 1627.8,862.7 					"/>
					<polyline class="st6" points="1648.6,874.7 1649,875 1648.7,875.4 					"/>
				</g>
			</g>
			<g>
				<g>
					<polyline class="st6" points="1615.1,883.7 1614.8,884.1 1614.4,883.9 					"/>
					<polyline class="st6" points="1593.6,871.8 1593.2,871.6 1593.5,871.2 					"/>
					<polyline class="st6" points="1605.5,850.4 1605.7,849.9 1606.2,850.2 					"/>
					<polyline class="st6" points="1626.9,862.2 1627.4,862.5 1627.1,862.9 					"/>
				</g>
			</g>
		</g>
		<g>
			<g>
				<g>
					<polyline class="st6" points="1692.5,899.6 1692.3,900.1 1691.8,899.8 					"/>
					<polyline class="st6" points="1671.1,887.8 1670.6,887.5 1670.9,887.1 					"/>
					<polyline class="st6" points="1682.9,866.3 1683.2,865.9 1683.6,866.1 					"/>
					<polyline class="st6" points="1704.4,878.2 1704.8,878.4 1704.5,878.8 					"/>
				</g>
			</g>
			<g>
				<g>
					<polyline class="st6" points="1670.9,887.1 1670.6,887.5 1670.2,887.3 					"/>
					<polyline class="st6" points="1649.4,875.3 1649,875 1649.3,874.6 					"/>
					<polyline class="st6" points="1661.3,853.8 1661.5,853.4 1662,853.6 					"/>
					<polyline class="st6" points="1682.7,865.6 1683.2,865.9 1682.9,866.3 					"/>
				</g>
			</g>
			<g>
				<g>
					<polyline class="st6" points="1683.4,865.5 1683.2,865.9 1682.7,865.6 					"/>
					<polyline class="st6" points="1662,853.6 1661.5,853.4 1661.8,852.9 					"/>
					<polyline class="st6" points="1673.8,832.2 1674.1,831.7 1674.5,832 					"/>
					<polyline class="st6" points="1695.3,844 1695.7,844.3 1695.4,844.7 					"/>
				</g>
			</g>
			<g>
				<g>
					<polyline class="st6" points="1735.8,924.7 1735.5,925.1 1735.1,924.9 					"/>
					<polyline class="st6" points="1714.3,912.8 1713.9,912.6 1714.2,912.1 					"/>
					<polyline class="st6" points="1726.2,891.4 1726.4,890.9 1726.9,891.2 					"/>
					<polyline class="st6" points="1747.6,903.2 1748.1,903.5 1747.8,903.9 					"/>
				</g>
			</g>
			<g>
				<g>
					<polyline class="st6" points="1748.3,903 1748.1,903.5 1747.6,903.2 					"/>
					<polyline class="st6" points="1726.9,891.2 1726.4,890.9 1726.7,890.5 					"/>
					<polyline class="st6" points="1738.7,869.7 1739,869.3 1739.4,869.6 					"/>
					<polyline class="st6" points="1760.2,881.6 1760.6,881.8 1760.3,882.3 					"/>
				</g>
			</g>
			<g>
				<g>
					<polyline class="st6" points="1726.7,890.5 1726.4,890.9 1726,890.7 					"/>
					<polyline class="st6" points="1705.2,878.7 1704.8,878.4 1705,878 					"/>
					<polyline class="st6" points="1717.1,857.2 1717.3,856.8 1717.8,857 					"/>
					<polyline class="st6" points="1738.5,869.1 1739,869.3 1738.7,869.7 					"/>
				</g>
			</g>
			<g>
				<g>
					<polyline class="st6" points="1708.5,822.2 1708.2,822.6 1707.8,822.4 					"/>
					<polyline class="st6" points="1687,810.3 1686.6,810.1 1686.8,809.7 					"/>
					<polyline class="st6" points="1698.9,788.9 1699.1,788.5 1699.5,788.7 					"/>
					<polyline class="st6" points="1720.3,800.7 1720.7,801 1720.5,801.4 					"/>
				</g>
			</g>
			<g>
				<g>
					<polyline class="st6" points="1773.4,859.8 1773.1,860.2 1772.7,859.9 					"/>
					<polyline class="st6" points="1751.9,847.9 1751.5,847.7 1751.7,847.2 					"/>
					<polyline class="st6" points="1763.8,826.5 1764,826 1764.4,826.3 					"/>
					<polyline class="st6" points="1785.2,838.3 1785.6,838.6 1785.4,839 					"/>
				</g>
			</g>
			<g>
				<g>
					<polyline class="st6" points="1751.7,847.2 1751.5,847.7 1751.1,847.4 					"/>
					<polyline class="st6" points="1730.3,835.4 1729.8,835.1 1730.1,834.7 					"/>
					<polyline class="st6" points="1742.1,813.9 1742.4,813.5 1742.8,813.8 					"/>
					<polyline class="st6" points="1763.6,825.8 1764,826 1763.8,826.5 					"/>
				</g>
			</g>
		</g>
		<g>
			<g>
				<g>
					<polyline class="st6" points="1642.4,986.2 1642.2,986.6 1641.7,986.3 					"/>
					<polyline class="st6" points="1621,974.3 1620.5,974.1 1620.8,973.6 					"/>
					<polyline class="st6" points="1632.8,952.9 1633.1,952.4 1633.5,952.7 					"/>
					<polyline class="st6" points="1654.3,964.7 1654.7,965 1654.4,965.4 					"/>
				</g>
			</g>
			<g>
				<g>
					<polyline class="st6" points="1620.8,973.6 1620.5,974.1 1620.1,973.8 					"/>
					<polyline class="st6" points="1599.3,961.8 1598.9,961.5 1599.1,961.1 					"/>
					<polyline class="st6" points="1611.2,940.3 1611.4,939.9 1611.9,940.2 					"/>
					<polyline class="st6" points="1632.6,952.2 1633.1,952.4 1632.8,952.9 					"/>
				</g>
			</g>
			<g>
				<g>
					<polyline class="st6" points="1633.3,952 1633.1,952.4 1632.6,952.2 					"/>
					<polyline class="st6" points="1611.9,940.2 1611.4,939.9 1611.7,939.5 					"/>
					<polyline class="st6" points="1623.7,918.7 1623.9,918.3 1624.4,918.5 					"/>
					<polyline class="st6" points="1645.2,930.5 1645.6,930.8 1645.3,931.2 					"/>
				</g>
			</g>
			<g>
				<g>
					<polyline class="st6" points="1685.7,1011.2 1685.4,1011.6 1685,1011.4 					"/>
					<polyline class="st6" points="1664.2,999.4 1663.8,999.1 1664.1,998.7 					"/>
					<polyline class="st6" points="1676.1,977.9 1676.3,977.5 1676.8,977.7 					"/>
					<polyline class="st6" points="1697.5,989.8 1698,990 1697.7,990.4 					"/>
				</g>
			</g>
			<g>
				<g>
					<polyline class="st6" points="1698.2,989.6 1698,990 1697.5,989.8 					"/>
					<polyline class="st6" points="1676.8,977.7 1676.3,977.5 1676.6,977.1 					"/>
					<polyline class="st6" points="1688.6,956.3 1688.9,955.8 1689.3,956.1 					"/>
					<polyline class="st6" points="1710.1,968.1 1710.5,968.4 1710.2,968.8 					"/>
				</g>
			</g>
			<g>
				<g>
					<polyline class="st6" points="1676.6,977.1 1676.3,977.5 1675.9,977.2 					"/>
					<polyline class="st6" points="1655.1,965.2 1654.7,965 1654.9,964.5 					"/>
					<polyline class="st6" points="1667,943.8 1667.2,943.3 1667.7,943.6 					"/>
					<polyline class="st6" points="1688.4,955.6 1688.9,955.8 1688.6,956.3 					"/>
				</g>
			</g>
			<g>
				<g>
					<polyline class="st6" points="1658.4,908.7 1658.1,909.2 1657.7,908.9 					"/>
					<polyline class="st6" points="1636.9,896.9 1636.5,896.6 1636.7,896.2 					"/>
					<polyline class="st6" points="1648.7,875.4 1649,875 1649.4,875.3 					"/>
					<polyline class="st6" points="1670.2,887.3 1670.6,887.5 1670.4,888 					"/>
				</g>
			</g>
			<g>
				<g>
					<polyline class="st6" points="1723.3,946.3 1723,946.7 1722.6,946.5 					"/>
					<polyline class="st6" points="1701.8,934.5 1701.4,934.2 1701.6,933.8 					"/>
					<polyline class="st6" points="1713.7,913 1713.9,912.6 1714.3,912.8 					"/>
					<polyline class="st6" points="1735.1,924.9 1735.5,925.1 1735.3,925.5 					"/>
				</g>
			</g>
			<g>
				<g>
					<polyline class="st6" points="1701.6,933.8 1701.4,934.2 1700.9,934 					"/>
					<polyline class="st6" points="1680.2,921.9 1679.7,921.7 1680,921.3 					"/>
					<polyline class="st6" points="1692,900.5 1692.3,900.1 1692.7,900.3 					"/>
					<polyline class="st6" points="1713.5,912.3 1713.9,912.6 1713.7,913 					"/>
				</g>
			</g>
		</g>
	</g>
	<g>
		<g>
			<g>
				<polyline class="st7" points="457.7,262 457.6,262.5 457.1,262.3 				"/>
				<polyline class="st7" points="397.9,245.9 397.4,245.8 397.5,245.3 				"/>
				<polyline class="st7" points="413.9,186 414.1,185.5 414.6,185.7 				"/>
				<polyline class="st7" points="473.8,202.1 474.3,202.2 474.2,202.7 				"/>
			</g>
		</g>
		<g>
			<g>
				<polyline class="st7" points="397.5,245.3 397.4,245.8 396.9,245.6 				"/>
				<polyline class="st7" points="337.6,229.2 337.1,229.1 337.3,228.6 				"/>
				<polyline class="st7" points="353.7,169.3 353.8,168.8 354.3,169 				"/>
				<polyline class="st7" points="413.6,185.4 414.1,185.5 413.9,186 				"/>
			</g>
		</g>
		<g>
			<g>
				<polyline class="st7" points="414.2,185 414.1,185.5 413.6,185.4 				"/>
				<polyline class="st7" points="354.3,169 353.8,168.8 354,168.4 				"/>
				<polyline class="st7" points="370.4,109.1 370.5,108.6 371,108.7 				"/>
				<polyline class="st7" points="430.3,125.2 430.8,125.3 430.6,125.8 				"/>
			</g>
		</g>
		<g>
			<g>
				<polyline class="st7" points="578.2,295.4 578.1,295.9 577.6,295.7 				"/>
				<polyline class="st7" points="518.3,279.3 517.8,279.2 518,278.7 				"/>
				<polyline class="st7" points="534.4,219.4 534.5,218.9 535,219.1 				"/>
				<polyline class="st7" points="594.3,235.5 594.8,235.6 594.6,236.1 				"/>
			</g>
		</g>
		<g>
			<g>
				<polyline class="st7" points="594.9,235.1 594.8,235.6 594.3,235.5 				"/>
				<polyline class="st7" points="535,219.1 534.5,218.9 534.7,218.4 				"/>
				<polyline class="st7" points="551.1,159.2 551.2,158.7 551.7,158.8 				"/>
				<polyline class="st7" points="611,175.3 611.5,175.4 611.3,175.9 				"/>
			</g>
		</g>
		<g>
			<g>
				<polyline class="st7" points="534.7,218.4 534.5,218.9 534,218.8 				"/>
				<polyline class="st7" points="474.8,202.4 474.3,202.2 474.4,201.7 				"/>
				<polyline class="st7" points="490.9,142.5 491,142 491.5,142.1 				"/>
				<polyline class="st7" points="550.7,158.6 551.2,158.7 551.1,159.2 				"/>
			</g>
		</g>
		<g>
			<g>
				<polyline class="st7" points="447.6,64.6 447.5,65.1 447,64.9 				"/>
				<polyline class="st7" points="387.7,48.5 387.2,48.4 387.4,47.9 				"/>
				<polyline class="st7" points="403.8,-11.4 403.9,-11.9 404.4,-11.7 				"/>
				<polyline class="st7" points="463.7,4.7 464.2,4.8 464,5.3 				"/>
			</g>
		</g>
		<g>
			<g>
				<polyline class="st7" points="628.3,114.7 628.2,115.2 627.7,115 				"/>
				<polyline class="st7" points="568.4,98.6 567.9,98.5 568.1,98 				"/>
				<polyline class="st7" points="584.5,38.7 584.6,38.2 585.1,38.4 				"/>
				<polyline class="st7" points="644.4,54.8 644.9,54.9 644.7,55.4 				"/>
			</g>
		</g>
		<g>
			<g>
				<polyline class="st7" points="568.1,98 567.9,98.5 567.4,98.3 				"/>
				<polyline class="st7" points="508.2,81.9 507.7,81.8 507.8,81.3 				"/>
				<polyline class="st7" points="524.3,22 524.4,21.5 524.9,21.7 				"/>
				<polyline class="st7" points="584.1,38.1 584.6,38.2 584.5,38.7 				"/>
			</g>
		</g>
	</g>
</g>
</svg>
