<svg xmlns="http://www.w3.org/2000/svg" viewBox="0 0 391 391"><title>instagram-esbocado</title><path d="M100.25.5H305.5a85,85,0,0,1,85,85v220a85,85,0,0,1-85,85H85.5a85,85,0,0,1-85-85V100.25A99.75,99.75,0,0,1,100.25.5Z" fill="#fff" stroke="#8c8c8c" stroke-miterlimit="10" opacity="0.53"/><path d="M120.75,19H285a85,85,0,0,1,85,85V287a85,85,0,0,1-85,85H106a85,85,0,0,1-85-85V118.75A99.75,99.75,0,0,1,120.75,19Z" fill="#fe9dec" stroke="#fff" stroke-miterlimit="10" stroke-width="30"/><circle cx="288.5" cy="101.5" r="21.5" fill="#fff"/><circle cx="196.5" cy="195.5" r="74.5" fill="none" stroke="#fff" stroke-miterlimit="10" stroke-width="30"/></svg>