<svg xmlns="http://www.w3.org/2000/svg" viewBox="0 0 500 475.53"><title>star_sticker</title><polygon points="250 393.73 96.16 474.61 125.54 303.31 1.07 181.99 173.08 156.99 250 1.13 326.92 156.99 498.93 181.99 374.46 303.31 403.85 474.61 250 393.73" fill="#fff"/><path d="M320,4.5l76.36,154.71.23.47.52.08,170.74,24.81L444.3,305l-.37.37.08.52,29.17,170.05L320.47,395.65l-.47-.25-.47.25L166.82,475.94l29.17-170,.08-.52-.37-.37L72.15,184.57l170.74-24.81.52-.08.23-.47L320,4.5m0-2.26L242.75,158.77,70,183.87,195,305.72l-29.51,172L320,396.53l154.51,81.23L445,305.72,570,183.87l-172.75-25.1L320,2.24Z" transform="translate(-70 -2.24)" fill="#8c8c8c"/><polygon points="250 52.31 310.26 174.41 445 193.98 347.5 289.02 370.52 423.22 250 359.86 129.48 423.22 152.5 289.02 55 193.98 189.74 174.41 250 52.31" fill="#fbfb9a"/></svg>